<?xml version="1.0"?>
<!DOCTYPE svg PUBLIC "-//W3C//DTD SVG 1.1//EN" "http://www.w3.org/Graphics/SVG/1.1/DTD/svg11.dtd">
<svg xmlns="http://www.w3.org/2000/svg" xmlns:xl="http://www.w3.org/1999/xlink" version="1.1" viewBox="360 526 147 146" width="147pt" height="146pt"><metadata xmlns:dc="http://purl.org/dc/elements/1.1/"><dc:date>2009-03-03 07:57Z</dc:date><!-- Produced by OmniGraffle Professional 4.2.1 --></metadata><defs></defs><g stroke="none" stroke-opacity="1" stroke-dasharray="none" fill="none" fill-opacity="1"><title>Canvas 1</title><g><title>Layer 1</title><path d="M 381.25 527 L 485.25 527 C 496.29568 527 505.25 535.9543 505.25 547 L 505.25 651 C 505.25 662.0457 496.29568 671 485.25 671 L 381.25 671 C 370.20432 671 361.25 662.0457 361.25 651 C 361.25 651 361.25 651 361.25 651 L 361.25 547 C 361.25 535.9543 370.20432 527 381.25 527 Z" fill="#3b3b3b"/><path d="M 428.25 562.5 L 442.25 576.5 L 428.25 576.5 Z" fill="#b4b4b4"/><rect x="395.27563" y="562.5" width="33.724365" height="14" fill="#b4b4b4"/><rect x="388.75" y="576.5" width="89" height="65.63098" fill="white"/><rect x="411.5" y="604.3155" width="43.5" height="10" fill="#3b3b3b"/><rect x="428.25" y="587.5655" width="10" height="43.5" fill="#3b3b3b"/></g></g></svg>
