<?xml version="1.0" encoding="utf-8"?>
<!-- Generator: Adobe Illustrator 13.0.1, SVG Export Plug-In . SVG Version: 6.00 Build 14948)  -->
<!DOCTYPE svg PUBLIC "-//W3C//DTD SVG 1.1//EN" "http://www.w3.org/Graphics/SVG/1.1/DTD/svg11.dtd">
<svg version="1.1" id="Layer_3" xmlns="http://www.w3.org/2000/svg" xmlns:xlink="http://www.w3.org/1999/xlink" x="0px" y="0px"
	 width="128px" height="128px" viewBox="0 0 128 128" enable-background="new 0 0 128 128" xml:space="preserve">
<path fill="#3C3C3C" d="M128,117.2c0,5.965-4.835,10.801-10.8,10.801H10.8C4.835,128,0,123.165,0,117.2V10.8C0,4.835,4.835,0,10.8,0
	h106.4c5.965,0,10.8,4.835,10.8,10.8V117.2z"/>
<path fill="#FFFFFF" d="M64.398,19.401c-28.236,0-51.134,22.886-51.134,51.125c0,3.195,0.302,6.322,0.858,9.355h49.952
	c5.648,0,10.225-4.58,10.225-10.223c0-5.647-4.576-10.226-10.225-10.226c-0.007,0-0.01,0-0.01,0H35.804
	c4.448-11.456,15.569-19.579,28.594-19.579c16.944,0,30.68,13.731,30.68,30.672c0,9.264-4.111,17.559-10.602,23.188l14.485,14.484
	c10.182-9.344,16.562-22.766,16.562-37.672C115.523,42.288,92.639,19.401,64.398,19.401z"/>
</svg>
