<?xml version="1.0"?>
<!DOCTYPE svg PUBLIC "-//W3C//DTD SVG 1.1//EN" "http://www.w3.org/Graphics/SVG/1.1/DTD/svg11.dtd">
<svg xmlns="http://www.w3.org/2000/svg" xmlns:xl="http://www.w3.org/1999/xlink" version="1.1" viewBox="30 2675 147 146" width="147pt" height="146pt"><metadata xmlns:dc="http://purl.org/dc/elements/1.1/"><dc:date>2009-07-14 20:24Z</dc:date><!-- Produced by OmniGraffle Professional 4.2.3 --></metadata><defs></defs><g stroke="none" stroke-opacity="1" stroke-dasharray="none" fill="none" fill-opacity="1"><title>Canvas 1</title><g><title>Layer 1</title><path d="M 51.5 2676 L 155.5 2676 C 166.5457 2676 175.5 2684.9543 175.5 2696 L 175.5 2800 C 175.5 2811.0457 166.5457 2820 155.5 2820 L 51.5 2820 C 40.454304 2820 31.5 2811.0457 31.5 2800 C 31.5 2800 31.5 2800 31.5 2800 L 31.499996 2696 C 31.499996 2684.9543 40.4543 2676 51.499996 2676 Z" fill="#3b3b3b"/><path d="M 145.410934 2712.779 C 156.94318 2732.231 156.94318 2763.769 145.410934 2783.221 C 133.87874 2802.6731 115.181366 2802.6731 103.64918 2783.221 C 92.11692 2763.769 92.11692 2732.231 103.64918 2712.779 C 115.181366 2693.3269 133.87874 2693.3269 145.410934 2712.779" fill="#ae81cd"/><rect x="61.5" y="2706.3774" width="55" height="11.174805" fill="white"/><rect x="71.047333" y="2730.4675" width="45.452698" height="11.174805" fill="white"/><rect x="61.5" y="2778.4475" width="55" height="11.174805" fill="white"/><rect x="71.047333" y="2754.4675" width="45.452698" height="11.174805" fill="white"/></g></g></svg>
