<?xml version="1.0"?>
<!DOCTYPE svg PUBLIC "-//W3C//DTD SVG 1.1//EN" "http://www.w3.org/Graphics/SVG/1.1/DTD/svg11.dtd">
<svg xmlns="http://www.w3.org/2000/svg" xmlns:xl="http://www.w3.org/1999/xlink" version="1.1" viewBox="249 1152 147 147" width="147pt" height="147pt"><metadata xmlns:dc="http://purl.org/dc/elements/1.1/"><dc:date>2007-12-11 06:44Z</dc:date><!-- Produced by OmniGraffle Professional 4.2.1 --></metadata><defs></defs><g stroke="none" stroke-opacity="1" stroke-dasharray="none" fill="none" fill-opacity="1"><title>Canvas 1</title><g><title>Layer 1</title><path d="M 270.5 1153.66 L 374.5 1153.66 C 385.54568 1153.66 394.5 1162.6144 394.5 1173.66 L 394.5 1277.66 C 394.5 1288.7057 385.54568 1297.66 374.5 1297.66 L 270.5 1297.66 C 259.45432 1297.66 250.5 1288.7057 250.5 1277.66 L 250.5 1173.66 C 250.5 1162.6144 259.45432 1153.66 270.5 1153.66 Z" fill="#3b3b3b"/><circle cx="319.5" cy="1237.397" r="25.297047" fill="#b4b4b4"/><line x1="307.49008" y1="1244.5923" x2="303.8879" y2="1265.02124" fill="#3b3b3b"/><line x1="307.49008" y1="1244.5923" x2="303.8879" y2="1265.02124" stroke="#d6ff6a" stroke-linecap="round" stroke-linejoin="round" stroke-width="8"/><line x1="332.36594" y1="1244.5923" x2="335.9681" y2="1265.02124" fill="#3b3b3b"/><line x1="332.36594" y1="1244.5923" x2="335.9681" y2="1265.02124" stroke="#d6ff6a" stroke-linecap="round" stroke-linejoin="round" stroke-width="8"/><circle cx="317.75601" cy="1198.6" r="21.600058" fill="#d6ff6a"/><circle cx="310.93" cy="1189.62" r="4.3200474" fill="#3b3b3b"/><circle cx="327" cy="1189.62" r="4.3200474" fill="#3b3b3b"/></g></g></svg>
