<?xml version="1.0"?>
<!DOCTYPE svg PUBLIC "-//W3C//DTD SVG 1.1//EN" "http://www.w3.org/Graphics/SVG/1.1/DTD/svg11.dtd">
<svg xmlns="http://www.w3.org/2000/svg" xmlns:xl="http://www.w3.org/1999/xlink" version="1.1" viewBox="306 1317 147 147" width="147pt" height="147pt"><metadata xmlns:dc="http://purl.org/dc/elements/1.1/"><dc:date>2007-12-11 06:47Z</dc:date><!-- Produced by OmniGraffle Professional 4.2.1 --></metadata><defs></defs><g stroke="none" stroke-opacity="1" stroke-dasharray="none" fill="none" fill-opacity="1"><title>Canvas 1</title><g><title>Layer 1</title><path d="M 327.5 1318.66 L 431.5 1318.66 C 442.54568 1318.66 451.5 1327.6144 451.5 1338.66 L 451.5 1442.66 C 451.5 1453.7057 442.54568 1462.66 431.5 1462.66 L 327.5 1462.66 C 316.45432 1462.66 307.5 1453.7057 307.5 1442.66 L 307.5 1338.66 C 307.5 1327.6144 316.45432 1318.66 327.5 1318.66 Z" fill="#3b3b3b"/><circle cx="376.5" cy="1402.397" r="25.297047" fill="#b4b4b4"/><line x1="364.49008" y1="1409.5923" x2="360.8879" y2="1430.0212" fill="#3b3b3b"/><line x1="364.49008" y1="1409.5923" x2="360.8879" y2="1430.0212" stroke="white" stroke-linecap="round" stroke-linejoin="round" stroke-width="8"/><line x1="389.36594" y1="1409.5923" x2="392.9681" y2="1430.0212" fill="#3b3b3b"/><line x1="389.36594" y1="1409.5923" x2="392.9681" y2="1430.0212" stroke="white" stroke-linecap="round" stroke-linejoin="round" stroke-width="8"/><circle cx="374.75601" cy="1363.6" r="21.600058" fill="white"/><circle cx="367.93" cy="1354.62" r="4.3200474" fill="#3b3b3b"/><circle cx="384" cy="1354.62" r="4.3200474" fill="#3b3b3b"/></g></g></svg>
