<?xml version="1.0"?>
<!DOCTYPE svg PUBLIC "-//W3C//DTD SVG 1.1//EN" "http://www.w3.org/Graphics/SVG/1.1/DTD/svg11.dtd">
<svg xmlns="http://www.w3.org/2000/svg" xmlns:xl="http://www.w3.org/1999/xlink" version="1.1" viewBox="268 134 147 147" width="147pt" height="147pt"><metadata xmlns:dc="http://purl.org/dc/elements/1.1/"><dc:date>2007-05-05 05:04Z</dc:date><!-- Produced by OmniGraffle Professional 4.1.2 --></metadata><defs></defs><g stroke="none" stroke-opacity="1" stroke-dasharray="none" fill="none" fill-opacity="1"><title>Canvas 1</title><g><title>Layer 1</title><path d="M 341.27802 135.41699 L 393.27802 135.41699 C 404.3237 135.41699 413.27802 144.37129 413.27802 155.41699 L 413.27802 259.41699 C 413.27802 270.46268 404.3237 279.417 393.27802 279.417 L 289.27802 279.417 C 278.23233 279.417 269.27802 270.46268 269.27802 259.41699 L 269.27802 155.41699 C 269.27802 144.37129 278.23233 135.41699 289.27802 135.41699 Z" fill="#3b3b3b"/><path d="M 341.27802 193.67891 L 346.55603 193.67891 C 348.76517 193.67891 350.55603 195.46977 350.55603 197.67891 L 350.55603 247.22038 C 350.55603 249.42952 348.76517 251.22038 346.55603 251.22038 L 336 251.22038 C 333.79086 251.22038 332 249.42952 332 247.22038 L 332 197.67891 C 332 195.46977 333.79086 193.67891 336 193.67891 Z" fill="White"/><ellipse cx="341.27802" cy="174.29901" rx="9.278015" ry="9.900339" fill="White"/></g></g></svg>
