<?xml version="1.0"?>
<!DOCTYPE svg PUBLIC "-//W3C//DTD SVG 1.1//EN" "http://www.w3.org/Graphics/SVG/1.1/DTD/svg11.dtd">
<svg xmlns="http://www.w3.org/2000/svg" xmlns:xl="http://www.w3.org/1999/xlink" version="1.1" viewBox="370 446 147 147" width="147pt" height="147pt"><metadata xmlns:dc="http://purl.org/dc/elements/1.1/"><dc:date>2007-08-30 16:44Z</dc:date><!-- Produced by OmniGraffle Professional 4.1.2 --></metadata><defs></defs><g stroke="none" stroke-opacity="1" stroke-dasharray="none" fill="none" fill-opacity="1"><title>Canvas 1</title><g><title>Layer 1</title><path d="M 443.30621 447.33948 L 495.3062 447.33948 C 506.3519 447.33948 515.3062 456.2938 515.3062 467.33948 L 515.3062 571.33948 C 515.3062 582.3852 506.3519 591.33948 495.3062 591.33948 L 391.30621 591.33948 C 380.26053 591.33948 371.30621 582.3852 371.30621 571.33948 L 371.30621 467.33948 C 371.30621 456.2938 380.26053 447.33948 391.30621 447.33948 Z" fill="#3b3b3b"/><circle cx="443.12396" cy="519.33948" r="56.745487" fill="White"/><path d="M 443.30621 503.9945 L 448.58423 503.9945 C 450.79337 503.9945 452.58423 505.78537 452.58423 507.9945 L 452.58423 557.536 C 452.58423 559.74518 450.79337 561.536 448.58423 561.536 L 438.0282 561.536 C 435.81906 561.536 434.0282 559.74518 434.0282 557.536 L 434.0282 507.9945 C 434.0282 505.78537 435.81906 503.9945 438.0282 503.9945 Z" fill="#3b3b3b"/><ellipse cx="443.30621" cy="486.22177" rx="9.278037" ry="9.900361" fill="#3b3b3b"/></g></g></svg>
