<?xml version="1.0"?>
<!DOCTYPE svg PUBLIC "-//W3C//DTD SVG 1.1//EN" "http://www.w3.org/Graphics/SVG/1.1/DTD/svg11.dtd">
<svg xmlns="http://www.w3.org/2000/svg" xmlns:xl="http://www.w3.org/1999/xlink" version="1.1" viewBox="260 850 147 147" width="147pt" height="147pt"><metadata xmlns:dc="http://purl.org/dc/elements/1.1/"><dc:date>2008-04-10 18:38Z</dc:date><!-- Produced by OmniGraffle Professional 4.2.1 --></metadata><defs></defs><g stroke="none" stroke-opacity="1" stroke-dasharray="none" fill="none" fill-opacity="1"><title>Canvas 1</title><g><title>Layer 1</title><rect x="275.00003" y="867.934" width="14.400024" height="14.400024" fill="white"/><path d="M 281.95844 851.934 L 385.95844 851.934 C 397.00412 851.934 405.95844 860.8883 405.95844 871.934 L 405.95844 975.934 C 405.95844 986.97974 397.00412 995.934 385.95844 995.934 L 281.95844 995.934 C 270.91275 995.934 261.95844 986.97974 261.95844 975.934 L 261.95844 871.934 C 261.95844 860.8883 270.91275 851.934 281.95844 851.934 Z" fill="#3b3b3b"/><rect x="291.50842" y="880.627" width="14.400024" height="14.400024" fill="white"/><rect x="326.40845" y="880.627" width="14.400024" height="14.400024" fill="white"/><rect x="362.50842" y="880.627" width="14.400024" height="14.400024" fill="white"/><rect x="291.50842" y="915.8" width="14.400024" height="14.400024" fill="white"/><rect x="326.40845" y="915.8" width="14.400024" height="14.400024" fill="white"/><rect x="362.50842" y="915.8" width="14.400024" height="14.400024" fill="white"/><rect x="291.50842" y="950.8" width="14.400024" height="14.400024" fill="white"/><rect x="326.40845" y="950.8" width="14.400024" height="14.400024" fill="white"/><rect x="362.50842" y="950.8" width="14.400024" height="14.400024" fill="white"/></g></g></svg>
