<?xml version="1.0"?>
<!DOCTYPE svg PUBLIC "-//W3C//DTD SVG 1.1//EN" "http://www.w3.org/Graphics/SVG/1.1/DTD/svg11.dtd">
<svg xmlns="http://www.w3.org/2000/svg" xmlns:xl="http://www.w3.org/1999/xlink" version="1.1" viewBox="312 536 146 146" width="146pt" height="146pt"><metadata xmlns:dc="http://purl.org/dc/elements/1.1/"><dc:date>2007-06-26 07:35Z</dc:date><!-- Produced by OmniGraffle Professional 4.1.2 --></metadata><defs></defs><g stroke="none" stroke-opacity="1" stroke-dasharray="none" fill="none" fill-opacity="1"><title>Canvas 1</title><g><title>Layer 1</title><path d="M 385 537 L 437 537 C 448.04568 537 457 545.9543 457 557 L 457 661 C 457 672.0457 448.04568 681 437 681 L 333 681 C 321.95432 681 313 672.0457 313 661 L 313 557 C 313 545.9543 321.95432 537 333 537 Z" fill="#3b3b3b"/><path d="M 385 588 C 374.09009 561.91382 343.16379 567.90216 343 598.0901 C 342.83618 615.07068 357.76553 621.05823 367.60947 627.7849 C 377.125 634.2655 384.01553 643.125 385 646.7345 C 385.98447 643.125 393.53104 633.93793 402.39053 627.45734 C 412.07068 620.32068 427.16382 614.57843 427 598.0901 C 426.8362 567.65607 395.33621 562.81677 385 588 Z" fill="White"/></g></g></svg>
