<?xml version="1.0"?>
<!DOCTYPE svg PUBLIC "-//W3C//DTD SVG 1.1//EN" "http://www.w3.org/Graphics/SVG/1.1/DTD/svg11.dtd">
<svg xmlns="http://www.w3.org/2000/svg" xmlns:xl="http://www.w3.org/1999/xlink" version="1.1" viewBox="85 1698 147 147" width="147pt" height="147pt"><metadata xmlns:dc="http://purl.org/dc/elements/1.1/"><dc:date>2008-04-02 22:24Z</dc:date><!-- Produced by OmniGraffle Professional 4.2.1 --></metadata><defs></defs><g stroke="none" stroke-opacity="1" stroke-dasharray="none" fill="none" fill-opacity="1"><title>Canvas 1</title><g><title>Layer 1</title><path d="M 106.5 1699.5 L 210.5 1699.5 C 221.5457 1699.5 230.5 1708.4543 230.5 1719.5 L 230.5 1823.5 C 230.5 1834.5457 221.5457 1843.5 210.5 1843.5 L 106.5 1843.5 C 95.45431 1843.5 86.5 1834.5457 86.5 1823.5 L 86.5 1719.5 C 86.5 1708.4543 95.45431 1699.5 106.5 1699.5 Z" fill="#3b3b3b"/><rect x="126.15462" y="1807.8638" width="68.599396" height="11.5200195" fill="white"/><rect x="145.819275" y="1771.8638" width="17.6987" height="33.9917" fill="white"/><rect x="186.56998" y="1766" width="11.872864" height="53.507812" fill="white"/><rect x="154.51787" y="1726.3638" width="11.872864" height="11.644043" fill="white"/><rect x="178.07025" y="1724.5" width="13.9297485" height="32.032715" fill="white"/><rect x="119.96573" y="1766" width="11.872894" height="53.507812" fill="white"/><path d="M 163.07034 1728.4838 L 209.7933 1775.2067 L 202.7684 1782.2316 L 156.04544 1735.5087 Z" fill="white"/><path d="M 210.09067 1772.8389 L 208.81787 1774.1117 L 172.58014 1737.874 L 173.85294 1736.6012 Z" fill="#3b3b3b"/><path d="M 162.24788 1735.5085 L 115.1282 1782.6282 L 108.10331 1775.6033 L 155.22299 1728.4836 Z" fill="white"/><path d="M 208.43623 1787.8722 L 207.16344 1789.145 L 178.07024 1760.0519 L 179.34303 1758.7791 Z" fill="#3b3b3b"/><path d="M 144.48328 1753.0581 L 145.75607 1754.3309 L 114.54351 1785.5435 L 113.27072 1784.2706 Z" fill="#3b3b3b"/></g></g></svg>
