<?xml version="1.0"?>
<!DOCTYPE svg PUBLIC "-//W3C//DTD SVG 1.1//EN" "http://www.w3.org/Graphics/SVG/1.1/DTD/svg11.dtd">
<svg xmlns="http://www.w3.org/2000/svg" xmlns:xl="http://www.w3.org/1999/xlink" version="1.1" viewBox="83 771 147 146" width="147pt" height="146pt"><metadata xmlns:dc="http://purl.org/dc/elements/1.1/"><dc:date>2007-09-20 15:37Z</dc:date><!-- Produced by OmniGraffle Professional 4.2.1 --></metadata><defs></defs><g stroke="none" stroke-opacity="1" stroke-dasharray="none" fill="none" fill-opacity="1"><title>Canvas 1</title><g><title>Layer 1</title><path d="M 104.00009 772 L 208.00009 772 C 219.04579 772 228.00009 780.9543 228.00009 792 L 228.00009 896 C 228.00009 907.0457 219.04579 916 208.00009 916 L 104.00009 916 C 92.9544 916 84.00009 907.0457 84.00009 896 L 84.00009 792 C 84.00009 780.9543 92.9544 772 104.00009 772 Z" fill="#3b3b3b"/><line x1="110.25" y1="886.945" x2="201.75" y2="886.945" fill="#3b3b3b"/><line x1="110.25" y1="886.945" x2="201.75" y2="886.945" stroke="white" stroke-linecap="butt" stroke-linejoin="round" stroke-width="14"/><line x1="110.25009" y1="858.5071" x2="201.75009" y2="858.5071" fill="#3b3b3b"/><line x1="110.25009" y1="858.5071" x2="201.75009" y2="858.5071" stroke="white" stroke-linecap="butt" stroke-linejoin="round" stroke-width="14"/><line x1="110.25" y1="830.06915" x2="201.75" y2="830.06915" fill="#3b3b3b"/><line x1="110.25" y1="830.06915" x2="201.75" y2="830.06915" stroke="white" stroke-linecap="butt" stroke-linejoin="round" stroke-width="14"/><line x1="110.25" y1="801.05493" x2="201.75" y2="801.05493" fill="#3b3b3b"/><line x1="110.25" y1="801.05493" x2="201.75" y2="801.05493" stroke="white" stroke-linecap="butt" stroke-linejoin="round" stroke-width="14"/></g></g></svg>
