<?xml version="1.0"?>
<!DOCTYPE svg PUBLIC "-//W3C//DTD SVG 1.1//EN" "http://www.w3.org/Graphics/SVG/1.1/DTD/svg11.dtd">
<svg xmlns="http://www.w3.org/2000/svg" xmlns:xl="http://www.w3.org/1999/xlink" version="1.1" viewBox="274 422 147 146" width="147pt" height="146pt"><metadata xmlns:dc="http://purl.org/dc/elements/1.1/"><dc:date>2007-06-26 07:01Z</dc:date><!-- Produced by OmniGraffle Professional 4.1.2 --></metadata><defs></defs><g stroke="none" stroke-opacity="1" stroke-dasharray="none" fill="none" fill-opacity="1"><title>Canvas 1</title><g><title>Layer 1</title><path d="M 347.2998 423 L 399.2998 423 C 410.3455 423 419.2998 431.95432 419.2998 443 L 419.2998 547 C 419.2998 558.0457 410.3455 567 399.2998 567 L 295.2998 567 C 284.25412 567 275.2998 558.0457 275.2998 547 L 275.2998 443 C 275.2998 431.95432 284.25412 423 295.2998 423 Z" fill="#3b3b3b"/><path d="M 365.13257 445.4182 L 373.65656 448.5207 C 375.73245 449.27625 376.8028 451.57162 376.04724 453.64752 C 376.04724 453.64752 376.04724 453.64752 376.04724 453.64752 L 353.48032 515.64978 C 352.72476 517.7257 350.42938 518.79602 348.35349 518.04047 C 348.35349 518.04047 348.35349 518.04047 348.35349 518.04047 L 331.30548 511.83545 C 329.22958 511.07986 328.15924 508.78452 328.9148 506.70862 L 351.48172 444.70642 C 352.23727 442.63052 354.53265 441.56018 356.60855 442.31573 C 356.60855 442.31573 356.60855 442.31573 356.60855 442.31573 Z" fill="White"/><path d="M 324.6363 516.26385 L 327.68927 548.19977 L 350.556 525.69788 Z" fill="White"/></g></g></svg>
