<?xml version="1.0" encoding="utf-8"?>
<!-- Generator: Adobe Illustrator 13.0.2, SVG Export Plug-In . SVG Version: 6.00 Build 14948)  -->
<!DOCTYPE svg PUBLIC "-//W3C//DTD SVG 1.1//EN" "http://www.w3.org/Graphics/SVG/1.1/DTD/svg11.dtd">
<svg version="1.1" id="Layer_5" xmlns="http://www.w3.org/2000/svg" xmlns:xlink="http://www.w3.org/1999/xlink" x="0px" y="0px"
	 width="128px" height="128px" viewBox="0 0 128 128" enable-background="new 0 0 128 128" xml:space="preserve">
<path fill="#3C3C3C" d="M128,117.199c0,5.965-4.835,10.801-10.8,10.801H10.8C4.835,128,0,123.164,0,117.199V10.8
	C0,4.835,4.835,0,10.8,0h106.4c5.965,0,10.8,4.835,10.8,10.8V117.199z"/>
<path fill="none" stroke="#FFFFFF" stroke-width="15" d="M31.42,86.854c-4.978-6.707-7.922-15.014-7.922-24.01
	c0-21.145,16.271-36.388,36.978-38.092"/>
<path fill="none" stroke="#FFFFFF" stroke-width="15" d="M96.407,39.059c4.876,6.668,7.755,14.89,7.755,23.784
	c0,20.956-15.982,36.077-36.421,38.042"/>
<polygon fill="#FFFFFF" points="58.507,6.303 58.507,44.675 92.745,25.574 "/>
<polygon fill="#FFFFFF" points="69.678,80.671 69.169,119.041 35.188,99.317 "/>
</svg>
