<?xml version="1.0"?>
<!DOCTYPE svg PUBLIC "-//W3C//DTD SVG 1.1//EN" "http://www.w3.org/Graphics/SVG/1.1/DTD/svg11.dtd">
<svg xmlns="http://www.w3.org/2000/svg" xmlns:xl="http://www.w3.org/1999/xlink" version="1.1" viewBox="379 604 147 147" width="147pt" height="147pt"><metadata xmlns:dc="http://purl.org/dc/elements/1.1/"><dc:date>2007-08-30 16:44Z</dc:date><!-- Produced by OmniGraffle Professional 4.1.2 --></metadata><defs></defs><g stroke="none" stroke-opacity="1" stroke-dasharray="none" fill="none" fill-opacity="1"><title>Canvas 1</title><g><title>Layer 1</title><path d="M 452.062 605.503 L 504.062 605.503 C 515.10773 605.503 524.062 614.45728 524.062 625.503 L 524.062 729.503 C 524.062 740.5487 515.10773 749.503 504.062 749.503 L 400.062 749.503 C 389.01633 749.503 380.06201 740.5487 380.06201 729.503 L 380.06201 625.503 C 380.06201 614.45728 389.01633 605.503 400.062 605.503 Z" fill="#3b3b3b"/><path d="M 460.5423 662.78076 L 481.47662 662.78076 C 483.68576 662.78076 485.47662 664.5716 485.47662 666.78076 L 485.47662 688.22534 C 485.47662 690.4345 483.68576 692.22534 481.47662 692.22534 L 439.60797 692.22534 C 437.39883 692.22534 435.60797 690.4345 435.60797 688.22534 L 435.60797 666.78076 C 435.60797 664.5716 437.39883 662.78076 439.60797 662.78076 Z" fill="#3b3b3b"/><path d="M 446.23593 650.5688 L 416.621 677.42163 L 446.23593 704.27448 Z" fill="#3b3b3b"/><circle cx="452.062" cy="677.50305" r="56.74562" fill="White"/><path d="M 443.56107 642.3116 L 401.44147 680.5028 L 443.56104 718.69403 Z" fill="#3b3b3b"/><path d="M 465.73566 661.84296 L 492.7743 661.84296 C 494.98343 661.84296 496.7743 663.6338 496.7743 665.84296 L 496.7743 694.4959 C 496.7743 696.70508 494.98343 698.4959 492.7743 698.4959 L 438.69702 698.4959 C 436.48788 698.4959 434.69702 696.70508 434.69702 694.4959 L 434.69702 665.84296 C 434.69702 663.6338 436.48788 661.84296 438.69702 661.84296 Z" fill="#3b3b3b"/></g></g></svg>
