<?xml version="1.0"?>
<!DOCTYPE svg PUBLIC "-//W3C//DTD SVG 1.1//EN" "http://www.w3.org/Graphics/SVG/1.1/DTD/svg11.dtd">
<svg xmlns="http://www.w3.org/2000/svg" xmlns:xl="http://www.w3.org/1999/xlink" version="1.1" viewBox="426 341 147 147" width="147pt" height="147pt"><metadata xmlns:dc="http://purl.org/dc/elements/1.1/"><dc:date>2007-08-15 07:16Z</dc:date><!-- Produced by OmniGraffle Professional 4.1.2 --></metadata><defs></defs><g stroke="none" stroke-opacity="1" stroke-dasharray="none" fill="none" fill-opacity="1"><title>Canvas 1</title><g><title>Layer 1</title><path d="M 499.62097 342.83401 L 551.62097 342.83401 C 562.6667 342.83401 571.62097 351.78833 571.62097 362.83401 L 571.62097 466.83401 C 571.62097 477.8797 562.6667 486.83401 551.62097 486.83401 L 447.621 486.83401 C 436.57532 486.83401 427.621 477.8797 427.621 466.83401 L 427.621 362.83401 C 427.621 351.78833 436.57532 342.83401 447.621 342.83401 Z" fill="#3b3b3b"/><path d="M 492.12006 376.64255 L 450.00043 414.8338 L 492.12003 453.02505 Z" fill="White"/><path d="M 514.29468 396.174 L 541.3333 396.174 C 543.54248 396.174 545.3333 397.96487 545.3333 400.174 L 545.3333 428.82703 C 545.3333 431.03616 543.54248 432.82703 541.3333 432.82703 L 487.25604 432.82703 C 485.0469 432.82703 483.25604 431.03616 483.25604 428.82703 L 483.25604 400.174 C 483.25604 397.96487 485.0469 396.174 487.25604 396.174 Z" fill="White"/></g></g></svg>
