<?xml version="1.0"?>
<!DOCTYPE svg PUBLIC "-//W3C//DTD SVG 1.1//EN" "http://www.w3.org/Graphics/SVG/1.1/DTD/svg11.dtd">
<svg xmlns="http://www.w3.org/2000/svg" xmlns:xl="http://www.w3.org/1999/xlink" version="1.1" viewBox="286 653 146 146" width="146pt" height="146pt"><metadata xmlns:dc="http://purl.org/dc/elements/1.1/"><dc:date>2007-08-29 07:33Z</dc:date><!-- Produced by OmniGraffle Professional 4.1.2 --></metadata><defs></defs><g stroke="none" stroke-opacity="1" stroke-dasharray="none" fill="none" fill-opacity="1"><title>Canvas 1</title><g><title>Layer 1</title><path d="M 359 654 L 411 654 C 422.04568 654 431 662.9543 431 674 L 431 778 C 431 789.0457 422.04568 798 411 798 L 307 798 C 295.95432 798 287 789.0457 287 778 L 287 674 C 287 662.9543 295.95432 654 307 654 Z" fill="#3b3b3b"/><path d="M 359.74274 754.0732 L 350.53937 701.87836 L 346.10776 702.6598 L 350.36935 674.9995 L 363.8343 699.5341 L 359.40265 700.3155 L 368.60602 752.5103 L 373.03763 751.7289 L 368.77603 779.38916 L 355.3111 754.85455 Z" fill="White"/><path d="M 345.70786 750.55713 L 363.83493 700.7534 L 359.6063 699.2143 L 377.12708 677.39062 L 376.52075 705.37067 L 372.29214 703.83154 L 354.16507 753.63525 L 358.3937 755.17438 L 340.87292 776.99805 L 341.47925 749.018 Z" fill="White"/><path d="M 336.20993 713.90216 L 386.01364 732.02924 L 387.55273 727.80066 L 409.3764 745.3214 L 381.39636 744.7151 L 382.93546 740.4865 L 333.13174 722.35944 L 331.59265 726.588 L 309.76898 709.06726 L 337.74902 709.6736 Z" fill="White"/><path d="M 373.15936 749.19275 L 339.09161 708.59235 L 335.6444 711.48492 L 325.50494 685.39966 L 349.43323 699.91473 L 345.98602 702.80725 L 380.05377 743.40765 L 383.50098 740.51508 L 393.64044 766.60034 L 369.71216 752.08527 Z" fill="White"/><circle cx="359.5727" cy="727.19434" r="36.000088" fill="White"/><path d="M 336.37997 740.781 L 376.98032 706.71326 L 374.08777 703.26605 L 400.17303 693.1266 L 385.65796 717.05487 L 382.7654 713.60767 L 342.16507 747.6754 L 345.05762 751.1226 L 318.97235 761.2621 L 333.48743 737.3338 Z" fill="White"/><path d="M 332.69388 727.3644 L 384.88867 718.161 L 384.10727 713.72937 L 411.76752 717.99097 L 387.23294 731.45593 L 386.4515 727.0243 L 334.25671 736.22766 L 335.03812 740.6593 L 307.37787 736.3977 L 331.91245 722.93274 Z" fill="White"/></g></g></svg>
