<?xml version="1.0" encoding="utf-8"?>
<!-- Generator: Adobe Illustrator 13.0.2, SVG Export Plug-In . SVG Version: 6.00 Build 14948)  -->
<!DOCTYPE svg PUBLIC "-//W3C//DTD SVG 1.1//EN" "http://www.w3.org/Graphics/SVG/1.1/DTD/svg11.dtd">
<svg version="1.1" id="Layer_3" xmlns="http://www.w3.org/2000/svg" xmlns:xlink="http://www.w3.org/1999/xlink" x="0px" y="0px"
	 width="127.723px" height="128.141px" viewBox="0 0 127.723 128.141" enable-background="new 0 0 127.723 128.141"
	 xml:space="preserve">
<path fill="#3B3B3B" stroke="#3B3B3B" stroke-width="8" d="M123.723,112.833c0,6.248-5.027,11.308-11.225,11.308H15.224
	C9.025,124.141,4,119.081,4,112.833V15.306C4,9.061,9.025,4,15.224,4h97.274c6.197,0,11.225,5.061,11.225,11.306V112.833z"/>
<path fill="none" stroke="#000000" d="M90.657,41.16"/>
<path fill="#FFFFFF" d="M104.024,104.654c0,4.594-4.12,8.32-9.203,8.32H32.814c-5.082,0-9.202-3.727-9.202-8.32V80.553
	c0-4.596,4.12-8.32,9.202-8.32h62.007c5.083,0,9.203,3.725,9.203,8.32V104.654z"/>
<path fill="none" stroke="#FFFFFF" stroke-width="8" d="M82.487,89.048c-10.422,5.789-24.512,0.445-31.966-11.931
	c-0.201-0.335-12.526-22.508-12.718-22.854c-7.276-13.1-3.336-26.446,7.369-32.393c10.702-5.944,24.116-2.238,31.392,10.861"/>
<rect x="39.91" y="53.561" transform="matrix(0.8742 -0.4856 0.4856 0.8742 -26.0986 29.4712)" fill="#FFFFFF" width="7.825" height="23.076"/>
</svg>
