<?xml version="1.0" encoding="iso-8859-1"?>
<!-- Generator: Adobe Illustrator 19.0.0, SVG Export Plug-In . SVG Version: 6.00 Build 0)  -->
<svg version="1.1" id="Capa_1" xmlns="http://www.w3.org/2000/svg" xmlns:xlink="http://www.w3.org/1999/xlink" x="0px" y="0px"
	 viewBox="0 0 512 512" style="enable-background:new 0 0 512 512;" xml:space="preserve">
<path style="fill:#303C42;" d="M384,256V128C384,57.417,326.583,0,256,0S128,57.417,128,128v128
	c-23.521,0-42.667,19.135-42.667,42.667s19.146,42.667,42.667,42.667h42.667v160c0,5.896,4.771,10.667,10.667,10.667
	c5.896,0,10.667-4.771,10.667-10.667v-160h128v117.333c0,5.896,4.771,10.667,10.667,10.667c5.896,0,10.667-4.771,10.667-10.667
	V341.333H384c23.521,0,42.667-19.135,42.667-42.667S407.521,256,384,256z"/>
<path style="fill:#BBDEFB;" d="M384,320H128c-11.771,0-21.333-9.573-21.333-21.333c0-11.76,9.563-21.333,21.333-21.333h10.667
	c5.896,0,10.667-4.771,10.667-10.667V128c0-58.813,47.854-106.667,106.667-106.667S362.667,69.188,362.667,128v138.667
	c0,5.896,4.771,10.667,10.667,10.667H384c11.771,0,21.333,9.573,21.333,21.333C405.333,310.427,395.771,320,384,320z"/>
<path style="opacity:0.2;fill:#FFFFFF;enable-background:new    ;" d="M149.333,128v138.667c0,5.896-4.771,10.667-10.667,10.667H128
	c-11.771,0-21.333,9.573-21.333,21.333c0,11.76,9.563,21.333,21.333,21.333h36.572c-8.408,0-15.238-9.573-15.238-21.333
	c0-11.76,6.831-21.333,15.238-21.333h7.618c4.212,0,7.62-4.771,7.62-10.667V128c0-58.813,34.181-106.667,76.19-106.667
	C197.188,21.333,149.333,69.188,149.333,128z"/>
<path style="opacity:0.1;enable-background:new    ;" d="M384,277.333h-10.667c-5.896,0-10.667-4.771-10.667-10.667V128
	c0-58.813-47.854-106.667-106.667-106.667c42.009,0,76.19,47.854,76.19,106.667v138.667c0,5.896,3.408,10.667,7.62,10.667h7.618
	c8.408,0,15.238,9.573,15.238,21.333c0,11.76-6.831,21.333-15.238,21.333H384c11.771,0,21.333-9.573,21.333-21.333
	C405.333,286.906,395.771,277.333,384,277.333z"/>
<path style="opacity:0.6;fill:#FFFFFF;enable-background:new    ;" d="M330.667,256H181.333c-5.896,0-10.667,4.771-10.667,10.667
	c0,5.896,4.771,10.667,10.667,10.667h149.333c5.896,0,10.667-4.771,10.667-10.667C341.333,260.771,336.563,256,330.667,256z"/>
<linearGradient id="SVGID_1_" gradientUnits="userSpaceOnUse" x1="-42.6426" y1="637.6547" x2="-27.4" y2="630.5468" gradientTransform="matrix(21.3333 0 0 -21.3333 996.3334 13791.667)">
	<stop  offset="0" style="stop-color:#FFFFFF;stop-opacity:0.2"/>
	<stop  offset="1" style="stop-color:#FFFFFF;stop-opacity:0"/>
</linearGradient>
<path style="fill:url(#SVGID_1_);" d="M384,256V128C384,57.417,326.583,0,256,0S128,57.417,128,128v128
	c-23.521,0-42.667,19.135-42.667,42.667s19.146,42.667,42.667,42.667h42.667v160c0,5.896,4.771,10.667,10.667,10.667
	c5.896,0,10.667-4.771,10.667-10.667v-160h128v117.333c0,5.896,4.771,10.667,10.667,10.667c5.896,0,10.667-4.771,10.667-10.667
	V341.333H384c23.521,0,42.667-19.135,42.667-42.667S407.521,256,384,256z"/>
<g>
</g>
<g>
</g>
<g>
</g>
<g>
</g>
<g>
</g>
<g>
</g>
<g>
</g>
<g>
</g>
<g>
</g>
<g>
</g>
<g>
</g>
<g>
</g>
<g>
</g>
<g>
</g>
<g>
</g>
</svg>
