<?xml version="1.0" encoding="UTF-8" standalone="no"?>
<!-- Generator: Adobe Illustrator 19.0.0, SVG Export Plug-In . SVG Version: 6.00 Build 0)  -->

<svg
   xmlns:dc="http://purl.org/dc/elements/1.1/"
   xmlns:cc="http://creativecommons.org/ns#"
   xmlns:rdf="http://www.w3.org/1999/02/22-rdf-syntax-ns#"
   xmlns:svg="http://www.w3.org/2000/svg"
   xmlns="http://www.w3.org/2000/svg"
   xmlns:sodipodi="http://sodipodi.sourceforge.net/DTD/sodipodi-0.dtd"
   xmlns:inkscape="http://www.inkscape.org/namespaces/inkscape"
   version="1.1"
   id="Capa_1"
   x="0px"
   y="0px"
   viewBox="0 0 512 512"
   style="enable-background:new 0 0 512 512;"
   xml:space="preserve"
   inkscape:version="0.91 r13725"
   sodipodi:docname="led_red_off.svg"><metadata
     id="metadata54"><rdf:RDF><cc:Work
         rdf:about=""><dc:format>image/svg+xml</dc:format><dc:type
           rdf:resource="http://purl.org/dc/dcmitype/StillImage" /><dc:title></dc:title></cc:Work></rdf:RDF></metadata><defs
     id="defs52" /><sodipodi:namedview
     pagecolor="#ffffff"
     bordercolor="#666666"
     borderopacity="1"
     objecttolerance="10"
     gridtolerance="10"
     guidetolerance="10"
     inkscape:pageopacity="0"
     inkscape:pageshadow="2"
     inkscape:window-width="2560"
     inkscape:window-height="1416"
     id="namedview50"
     showgrid="true"
     inkscape:zoom="1.3037281"
     inkscape:cx="77.560826"
     inkscape:cy="199.44939"
     inkscape:window-x="0"
     inkscape:window-y="24"
     inkscape:window-maximized="1"
     inkscape:current-layer="Capa_1"
     inkscape:snap-bbox="true"
     inkscape:bbox-nodes="true"
     inkscape:bbox-paths="true"
     inkscape:snap-bbox-edge-midpoints="true"
     inkscape:object-nodes="true"
     inkscape:snap-smooth-nodes="true"
     inkscape:object-paths="true"
     inkscape:snap-intersection-paths="true"><inkscape:grid
       type="xygrid"
       id="grid4204" /></sodipodi:namedview><path
     style="opacity:0.6;fill:#FFFFFF;enable-background:new    ;"
     d="M330.667,256H181.333c-5.896,0-10.667,4.771-10.667,10.667  c0,5.896,4.771,10.667,10.667,10.667h149.333c5.896,0,10.667-4.771,10.667-10.667C341.333,260.771,336.563,256,330.667,256z"
     id="path11" /><path
     style="fill:url(#SVGID_1_);"
     d="M384,256V128C384,57.417,326.583,0,256,0S128,57.417,128,128v128  c-23.521,0-42.667,19.135-42.667,42.667s19.146,42.667,42.667,42.667h42.667v160c0,5.896,4.771,10.667,10.667,10.667  c5.896,0,10.667-4.771,10.667-10.667v-160h128v117.333c0,5.896,4.771,10.667,10.667,10.667c5.896,0,10.667-4.771,10.667-10.667  V341.333H384c23.521,0,42.667-19.135,42.667-42.667S407.521,256,384,256z"
     id="path18" /><path
     inkscape:connector-curvature="0"
     style="fill:#303c42"
     d="m 384,256 0,-128 C 384,57.417 326.583,0 256,0 185.417,0 128,57.417 128,128 l 0,128 c -23.521,0 -42.667,19.135 -42.667,42.667 0,23.532 19.146,42.667 42.667,42.667 l 42.667,0 0,160 c 0,5.896 4.771,10.667 10.667,10.667 5.896,0 10.667,-4.771 10.667,-10.667 l 0,-160 128,0 0,117.333 c 0,5.896 4.771,10.667 10.667,10.667 5.896,0 10.667,-4.771 10.667,-10.667 l 0,-117.334 42.665,0 c 23.521,0 42.667,-19.135 42.667,-42.667 C 426.667,275.134 407.521,256 384,256 Z"
     id="path3" /><path
     style="fill:#c35555;fill-opacity:1"
     d="m 385.53406,308.49453 -256,0 c -11.771,0 -21.333,-9.573 -21.333,-21.333 0,-11.76 9.563,-21.333 21.333,-21.333 l 10.667,0 c 5.896,0 10.667,-4.771 10.667,-10.667 l 0,-138.667 c 0,-58.812996 47.854,-106.6669963 106.667,-106.6669963 58.813,0 106.666,47.8550003 106.666,106.6669963 l 0,138.667 c 0,5.896 4.771,10.667 10.667,10.667 l 10.666,0 c 11.771,0 21.333,9.573 21.333,21.333 0,11.76 -9.562,21.333 -21.333,21.333 z"
     id="path5"
     inkscape:connector-curvature="0" /><path
     inkscape:connector-curvature="0"
     style="opacity:0.2;fill:#ffffff;enable-background:new"
     d="m 149.333,128 0,138.667 c 0,5.896 -4.771,10.667 -10.667,10.667 l -10.666,0 c -11.771,0 -21.333,9.573 -21.333,21.333 0,11.76 9.563,21.333 21.333,21.333 l 36.572,0 c -8.408,0 -15.238,-9.573 -15.238,-21.333 0,-11.76 6.831,-21.333 15.238,-21.333 l 7.618,0 c 4.212,0 7.62,-4.771 7.62,-10.667 L 179.81,128 C 179.81,69.187 213.991,21.333 256,21.333 197.188,21.333 149.333,69.188 149.333,128 Z"
     id="path7" /><path
     inkscape:connector-curvature="0"
     style="opacity:0.1;enable-background:new"
     d="m 384,277.333 -10.667,0 c -5.896,0 -10.667,-4.771 -10.667,-10.667 l 0,-138.666 c 0,-58.813 -47.854,-106.667 -106.667,-106.667 42.009,0 76.19,47.854 76.19,106.667 l 0,138.667 c 0,5.896 3.408,10.667 7.62,10.667 l 7.618,0 c 8.408,0 15.238,9.573 15.238,21.333 0,11.76 -6.831,21.333 -15.238,21.333 L 384,320 c 11.771,0 21.333,-9.573 21.333,-21.333 0,-11.761 -9.562,-21.334 -21.333,-21.334 z"
     id="path9" /><path
     style="opacity:1;fill:#999999;fill-opacity:1;stroke:none;stroke-width:5.40700006;stroke-linecap:round;stroke-miterlimit:4;stroke-dasharray:none;stroke-opacity:1"
     d="m 215,172 120,0 0,80 -15,0 0,-30 -70,0 z"
     id="rect4201"
     inkscape:connector-curvature="0"
     sodipodi:nodetypes="ccccccc" /><path
     style="opacity:1;fill:#999999;fill-opacity:1;stroke:none;stroke-width:5.40700006;stroke-linecap:round;stroke-miterlimit:4;stroke-dasharray:none;stroke-opacity:1"
     d="m 175,172 15,0 35,50 -35,0 0,30 -15,0 z"
     id="rect4206"
     inkscape:connector-curvature="0"
     sodipodi:nodetypes="ccccccc" /><linearGradient
     id="SVGID_1_"
     gradientUnits="userSpaceOnUse"
     x1="-42.6426"
     y1="637.6547"
     x2="-27.4"
     y2="630.5468"
     gradientTransform="matrix(21.3333 0 0 -21.3333 996.3334 13791.667)"><stop
       offset="0"
       style="stop-color:#FFFFFF;stop-opacity:0.2"
       id="stop14" /><stop
       offset="1"
       style="stop-color:#FFFFFF;stop-opacity:0"
       id="stop16" /></linearGradient><g
     id="g20" /><g
     id="g22" /><g
     id="g24" /><g
     id="g26" /><g
     id="g28" /><g
     id="g30" /><g
     id="g32" /><g
     id="g34" /><g
     id="g36" /><g
     id="g38" /><g
     id="g40" /><g
     id="g42" /><g
     id="g44" /><g
     id="g46" /><g
     id="g48" /></svg>