<?xml version="1.0" encoding="UTF-8" standalone="no"?>
<!-- Generator: Adobe Illustrator 19.0.0, SVG Export Plug-In . SVG Version: 6.00 Build 0)  -->

<svg
   xmlns:dc="http://purl.org/dc/elements/1.1/"
   xmlns:cc="http://creativecommons.org/ns#"
   xmlns:rdf="http://www.w3.org/1999/02/22-rdf-syntax-ns#"
   xmlns:svg="http://www.w3.org/2000/svg"
   xmlns="http://www.w3.org/2000/svg"
   xmlns:sodipodi="http://sodipodi.sourceforge.net/DTD/sodipodi-0.dtd"
   xmlns:inkscape="http://www.inkscape.org/namespaces/inkscape"
   version="1.1"
   id="Capa_1"
   x="0px"
   y="0px"
   viewBox="0 0 256 339.79993"
   xml:space="preserve"
   inkscape:version="0.91 r13725"
   sodipodi:docname="pushbutton.svg"
   width="256"
   height="339.79993"><metadata
     id="metadata54"><rdf:RDF><cc:Work
         rdf:about=""><dc:format>image/svg+xml</dc:format><dc:type
           rdf:resource="http://purl.org/dc/dcmitype/StillImage" /><dc:title></dc:title></cc:Work></rdf:RDF></metadata><defs
     id="defs52" /><sodipodi:namedview
     pagecolor="#ffffff"
     bordercolor="#666666"
     borderopacity="1"
     objecttolerance="10"
     gridtolerance="10"
     guidetolerance="10"
     inkscape:pageopacity="0"
     inkscape:pageshadow="2"
     inkscape:window-width="2495"
     inkscape:window-height="1416"
     id="namedview50"
     showgrid="true"
     inkscape:zoom="0.4609375"
     inkscape:cx="-947.2952"
     inkscape:cy="631.24974"
     inkscape:window-x="65"
     inkscape:window-y="24"
     inkscape:window-maximized="1"
     inkscape:current-layer="Capa_1"
     fit-margin-top="0"
     fit-margin-left="0"
     fit-margin-right="0"
     fit-margin-bottom="0"><inkscape:grid
       type="xygrid"
       id="grid4201"
       originx="-128"
       originy="-44.20006" /></sodipodi:namedview><path
     style="fill:#303c42"
     d="M 256,128 256,0 0,0 l 0,128 0,85.334 42.667,0 0,115.51219 c 0,5.896 4.771,10.667 10.667,10.667 5.896,0 10.667,-4.771 10.667,-10.667 l 0,-115.51219 128,0 0,115.79894 c 0,5.896 4.771,10.667 10.667,10.667 5.896,0 10.667,-4.771 10.667,-10.667 l 0,-115.79994 42.665,0 z"
     id="path3"
     inkscape:connector-curvature="0"
     sodipodi:nodetypes="ccccccsssccsssccc" /><path
     style="fill:#b3b3b3"
     d="m 235.74561,192.76703 -213.18963,0 0,-175.12532 213.18963,0 z"
     id="path5"
     inkscape:connector-curvature="0"
     sodipodi:nodetypes="ccccc" /><linearGradient
     id="SVGID_1_"
     gradientUnits="userSpaceOnUse"
     x1="-42.642601"
     y1="637.65472"
     x2="-27.4"
     y2="630.54681"
     gradientTransform="matrix(21.3333,0,0,-21.3333,943.40826,13796.269)"><stop
       offset="0"
       style="stop-color:#FFFFFF;stop-opacity:0.2"
       id="stop14" /><stop
       offset="1"
       style="stop-color:#FFFFFF;stop-opacity:0"
       id="stop16" /></linearGradient><g
     id="g20"
     transform="translate(-128,-128)" /><g
     id="g22"
     transform="translate(-128,-128)" /><g
     id="g24"
     transform="translate(-128,-128)" /><g
     id="g26"
     transform="translate(-128,-128)" /><g
     id="g28"
     transform="translate(-128,-128)" /><g
     id="g30"
     transform="translate(-128,-128)" /><g
     id="g32"
     transform="translate(-128,-128)" /><g
     id="g34"
     transform="translate(-128,-128)" /><g
     id="g36"
     transform="translate(-128,-128)" /><g
     id="g38"
     transform="translate(-128,-128)" /><g
     id="g40"
     transform="translate(-128,-128)" /><g
     id="g42"
     transform="translate(-128,-128)" /><g
     id="g44"
     transform="translate(-128,-128)" /><g
     id="g46"
     transform="translate(-128,-128)" /><g
     id="g48"
     transform="translate(-128,-128)" /><g
     id="g4208"
     transform="translate(-129.61727,-151.86441)"><path
       sodipodi:nodetypes="sssccs"
       inkscape:connector-curvature="0"
       id="ellipse4205"
       d="m 338.60032,260.03027 c 0,27.32346 -35.62196,49.47351 -79.83225,49.47351 -44.2103,0 -79.92814,-22.15004 -79.92814,-49.47351 0,-13.66173 0,-53.20004 0,-53.20004 l 159.76039,0.76703 z"
       style="opacity:1;fill:#131f25;fill-opacity:1;stroke:none;stroke-width:2.4000001;stroke-miterlimit:4;stroke-dasharray:none;stroke-opacity:1" /><ellipse
       ry="49.473503"
       rx="80.049812"
       cy="208.63921"
       cx="258.76807"
       id="path4203"
       style="opacity:1;fill:#434f55;fill-opacity:1;stroke:none;stroke-width:2.4000001;stroke-miterlimit:4;stroke-dasharray:none;stroke-opacity:1" /></g></svg>