<?xml version="1.0" encoding="UTF-8" standalone="no"?>
<!-- Generator: Adobe Illustrator 19.0.0, SVG Export Plug-In . SVG Version: 6.00 Build 0)  -->

<svg
   xmlns:dc="http://purl.org/dc/elements/1.1/"
   xmlns:cc="http://creativecommons.org/ns#"
   xmlns:rdf="http://www.w3.org/1999/02/22-rdf-syntax-ns#"
   xmlns:svg="http://www.w3.org/2000/svg"
   xmlns="http://www.w3.org/2000/svg"
   xmlns:sodipodi="http://sodipodi.sourceforge.net/DTD/sodipodi-0.dtd"
   xmlns:inkscape="http://www.inkscape.org/namespaces/inkscape"
   version="1.1"
   id="Capa_1"
   x="0px"
   y="0px"
   viewBox="0 0 512 512"
   style="enable-background:new 0 0 512 512;"
   xml:space="preserve"
   inkscape:version="0.91 r13725"
   sodipodi:docname="resistor100k.svg"><metadata
     id="metadata59"><rdf:RDF><cc:Work
         rdf:about=""><dc:format>image/svg+xml</dc:format><dc:type
           rdf:resource="http://purl.org/dc/dcmitype/StillImage" /><dc:title></dc:title></cc:Work></rdf:RDF></metadata><defs
     id="defs57" /><sodipodi:namedview
     pagecolor="#ffffff"
     bordercolor="#666666"
     borderopacity="1"
     objecttolerance="10"
     gridtolerance="10"
     guidetolerance="10"
     inkscape:pageopacity="0"
     inkscape:pageshadow="2"
     inkscape:window-width="2495"
     inkscape:window-height="1416"
     id="namedview55"
     showgrid="false"
     inkscape:snap-bbox="true"
     inkscape:bbox-paths="true"
     inkscape:bbox-nodes="true"
     inkscape:object-paths="true"
     inkscape:snap-intersection-paths="true"
     inkscape:object-nodes="true"
     showguides="true"
     inkscape:guide-bbox="true"
     inkscape:zoom="0.921875"
     inkscape:cx="74.414207"
     inkscape:cy="500.6859"
     inkscape:window-x="65"
     inkscape:window-y="24"
     inkscape:window-maximized="1"
     inkscape:current-layer="Capa_1"><inkscape:grid
       type="xygrid"
       id="grid4189" /></sodipodi:namedview><path
     style="opacity:1;fill:#ddcab8;fill-opacity:1;stroke:none;stroke-width:5.40700006;stroke-linecap:round;stroke-miterlimit:4;stroke-dasharray:none;stroke-opacity:1"
     d="M 115.16751,112.8705 C 80.47198,115.54528 52,147.56729 52,185.17578 c 0,37.60849 28.47198,69.6305 63.16751,72.30528 l 281.66498,0 C 431.52802,254.80628 460,222.78427 460,185.17578 c 0,-37.60849 -28.47198,-69.6305 -63.16751,-72.30528 z"
     id="rect4293"
     inkscape:connector-curvature="0"
     sodipodi:nodetypes="csccscc" /><path
     style="fill:#803300;fill-rule:evenodd;stroke:#000000;stroke-width:1px;stroke-linecap:butt;stroke-linejoin:miter;stroke-opacity:1"
     d="m 150,112 20.5,0 0,150 -20.5,0 z"
     id="path4263"
     inkscape:connector-curvature="0" /><path
     inkscape:connector-curvature="0"
     id="path4279"
     d="m 195.5,111.5 20.5,0 0,150 -20.5,0 z"
     style="fill:#000000;fill-rule:evenodd;stroke:#000000;stroke-width:1px;stroke-linecap:butt;stroke-linejoin:miter;stroke-opacity:1" /><path
     style="fill:#ffdd55;fill-rule:evenodd;stroke:#000000;stroke-width:1px;stroke-linecap:butt;stroke-linejoin:miter;stroke-opacity:1"
     d="m 239.5,107.5 20.5,0 0,150 -20.5,0 z"
     id="path4281"
     inkscape:connector-curvature="0" /><path
     inkscape:connector-curvature="0"
     id="path4283"
     d="m 294.5,107.5 20.5,0 0,150 -20.5,0 z"
     style="fill:#a0892c;fill-rule:evenodd;stroke:#000000;stroke-width:1px;stroke-linecap:butt;stroke-linejoin:miter;stroke-opacity:1" /><path
     d="M 124.5332,96 C 81.376203,96 44.901,132.713 40,177 l -30,0 c -5,0 -10,5 -10,10 l 0,210 c 0,10 10,10 10,10 0,0 10,0 10,-10 l 0,-200 20,0 c 4.901,44.287 41.376203,79 84.5332,79 l 262.9336,0 c 43.157,0 77.6322,-34.713 82.5332,-79 l 20,0 0,200 c 0,10 10,10 10,10 0,0 10,0 10,-10 l 0,-210 c 0,-5 -5,-10 -10,-10 l -30,0 C 465.099,132.713 430.6238,96 387.4668,96 Z M 120,116.17578 l 272,0 c 33.505,2.583 61,33.50622 61,69.82422 0,36.318 -27.495,67.24122 -61,69.82422 l -272,0 C 86.495,253.24122 59,222.318 59,186 c 0,-36.318 27.495,-67.24122 61,-69.82422 z"
     id="path23"
     inkscape:connector-curvature="0"
     sodipodi:nodetypes="scsscccccsscccccsscssccsccsc" /><path
     sodipodi:nodetypes="scsscccccsscccccsscssccsccsc"
     inkscape:connector-curvature="0"
     id="path4285"
     d="M 124.5332,96 C 81.376203,96 44.901,132.713 40,177 l -30,0 c -5,0 -10,5 -10,10 l 0,210 c 0,10 10,10 10,10 0,0 10,0 10,-10 l 0,-200 20,0 c 4.901,44.287 41.376203,79 84.5332,79 l 262.9336,0 c 43.157,0 77.6322,-34.713 82.5332,-79 l 20,0 0,200 c 0,10 10,10 10,10 0,0 10,0 10,-10 l 0,-210 c 0,-5 -5,-10 -10,-10 l -30,0 C 465.099,132.713 430.6238,96 387.4668,96 Z M 120,116.17578 l 272,0 c 33.505,2.583 61,33.50622 61,69.82422 0,36.318 -27.495,67.24122 -61,69.82422 l -272,0 C 86.495,253.24122 59,222.318 59,186 c 0,-36.318 27.495,-67.24122 61,-69.82422 z" /><path
     d="M 124.5332,96 C 81.376203,96 44.901,132.713 40,177 l -30,0 c -5,0 -10,5 -10,10 l 0,210 c 0,10 10,10 10,10 0,0 10,0 10,-10 l 0,-200 20,0 c 4.901,44.287 41.376203,79 84.5332,79 l 262.9336,0 c 43.157,0 77.6322,-34.713 82.5332,-79 l 20,0 0,200 c 0,10 10,10 10,10 0,0 10,0 10,-10 l 0,-210 c 0,-5 -5,-10 -10,-10 l -30,0 C 465.099,132.713 430.6238,96 387.4668,96 Z M 120,116.17578 l 272,0 c 33.505,2.583 61,33.50622 61,69.82422 0,36.318 -27.495,67.24122 -61,69.82422 l -272,0 C 86.495,253.24122 59,222.318 59,186 c 0,-36.318 27.495,-67.24122 61,-69.82422 z"
     id="path4287"
     inkscape:connector-curvature="0"
     sodipodi:nodetypes="scsscccccsscccccsscssccsccsc" /></svg>