<?xml version="1.0" encoding="UTF-8" standalone="no"?>
<!-- Created with Inkscape (http://www.inkscape.org/) -->

<svg
   xmlns:dc="http://purl.org/dc/elements/1.1/"
   xmlns:cc="http://creativecommons.org/ns#"
   xmlns:rdf="http://www.w3.org/1999/02/22-rdf-syntax-ns#"
   xmlns:svg="http://www.w3.org/2000/svg"
   xmlns="http://www.w3.org/2000/svg"
   xmlns:sodipodi="http://sodipodi.sourceforge.net/DTD/sodipodi-0.dtd"
   xmlns:inkscape="http://www.inkscape.org/namespaces/inkscape"
   width="32.695461mm"
   height="50.03978mm"
   viewBox="0 0 115.85006 177.3063"
   id="svg5122"
   version="1.1"
   inkscape:version="0.92.3 (2405546, 2018-03-11)"
   sodipodi:docname="studyAThome_noir.svg">
  <defs
     id="defs5124" />
  <sodipodi:namedview
     id="base"
     pagecolor="#ffffff"
     bordercolor="#666666"
     borderopacity="1.0"
     inkscape:pageopacity="0.0"
     inkscape:pageshadow="2"
     inkscape:zoom="3.959798"
     inkscape:cx="-9.5627909"
     inkscape:cy="103.93699"
     inkscape:document-units="px"
     inkscape:current-layer="layer1"
     showgrid="false"
     fit-margin-top="0"
     fit-margin-left="0"
     fit-margin-right="0"
     fit-margin-bottom="0"
     inkscape:window-width="1853"
     inkscape:window-height="1025"
     inkscape:window-x="67"
     inkscape:window-y="27"
     inkscape:window-maximized="1"
     showborder="true" />
  <metadata
     id="metadata5127">
    <rdf:RDF>
      <cc:Work
         rdf:about="">
        <dc:format>image/svg+xml</dc:format>
        <dc:type
           rdf:resource="http://purl.org/dc/dcmitype/StillImage" />
        <dc:title />
      </cc:Work>
    </rdf:RDF>
  </metadata>
  <g
     inkscape:label="Layer 1"
     inkscape:groupmode="layer"
     id="layer1"
     transform="translate(1123.6393,-96.998089)">
    <circle
       r="54.522923"
       cy="151.52101"
       cx="-1067.6251"
       id="circle4851"
       style="opacity:1;fill:#0e303f;fill-opacity:1;fill-rule:nonzero;stroke:none;stroke-width:2;stroke-linecap:round;stroke-miterlimit:4;stroke-dasharray:none;stroke-dashoffset:0;stroke-opacity:1" />
    <path
       sodipodi:nodetypes="ccccc"
       inkscape:connector-curvature="0"
       d="m -1020.4069,178.7824 -47.2182,-27.2614 -47.2183,27.2614 m 47.2183,-27.2614 0,-54.5229"
       style="fill:none;fill-rule:evenodd;stroke:#ffffff;stroke-width:2;stroke-linecap:butt;stroke-linejoin:miter;stroke-miterlimit:4;stroke-dasharray:none;stroke-opacity:1"
       id="path4853" />
    <g
       style="stroke:#ffffff;stroke-opacity:1"
       id="g4855"
       transform="matrix(0.37092272,0,0,0.37092272,-1171.925,-4.865)">
      <circle
         r="55"
         cy="421.61353"
         cx="281.19049"
         id="circle4857"
         style="opacity:1;fill:#0e303f;fill-opacity:1;stroke:#ffffff;stroke-width:5.39195871;stroke-linecap:round;stroke-miterlimit:4;stroke-dasharray:none;stroke-opacity:1" />
      <g
         style="stroke:#ffffff;stroke-opacity:1"
         inkscape:label="Layer 1"
         id="g4859"
         transform="matrix(0.1847753,0,0,0.1847753,134.242,240.87292)">
        <g
           style="stroke:#ffffff;stroke-opacity:1;enable-background:new"
           id="g4861"
           transform="matrix(4.1999887,0,0,4.1999887,-2248.6971,-580.62625)" />
      </g>
      <circle
         style="opacity:1;fill:#0e303f;fill-opacity:1;stroke:#ffffff;stroke-width:5.39195871;stroke-linecap:round;stroke-miterlimit:4;stroke-dasharray:none;stroke-opacity:1"
         id="circle4166"
         cx="281.19049"
         cy="421.61353"
         r="55" />
      <circle
         r="55"
         cy="421.61353"
         cx="281.19049"
         id="circle4168"
         style="opacity:1;fill:none;fill-opacity:1;stroke:#ffffff;stroke-width:5.39195871;stroke-linecap:round;stroke-miterlimit:4;stroke-dasharray:none;stroke-opacity:1" />
    </g>
    <path
       sodipodi:nodetypes="sccssssccccsccsccccssccssssssssssssssccs"
       style="opacity:1;fill:#ffffff;fill-opacity:1;stroke:none;stroke-width:4;stroke-linecap:round;stroke-miterlimit:4;stroke-dasharray:none;stroke-opacity:1"
       d="m -1033.5296,127.1268 c 0.4436,0 0.8868,0.1521 1.2488,0.4521 l 3.661,3.0285 0.01,-2.9751 c 5e-4,-0.2705 0.2223,-0.4912 0.4928,-0.4906 l 2.295,0.01 c 0.2705,0 0.4911,0.2223 0.4905,0.4927 l -0.013,5.6761 3.4199,2.8319 c 0.2086,0.1726 0.2407,0.4797 0.068,0.6925 l -1.0482,1.2684 c -0.1726,0.2085 -0.4845,0.2362 -0.6931,0.063 l -9.6204,-7.9606 c -0.1841,-0.148 -0.4459,-0.1486 -0.6266,0 l -9.6577,7.9153 c -0.2094,0.1717 -0.5211,0.1426 -0.6927,-0.067 l -1.0417,-1.2733 c -0.1716,-0.2094 -0.1425,-0.5206 0.067,-0.6922 l 10.3929,-8.5203 c 0.3634,-0.2983 0.8073,-0.4472 1.2509,-0.4462 z m -0.01,4.6537 c 0.1112,2e-4 0.2224,0.037 0.3144,0.1113 l 7.6903,6.3623 c 0.1104,0.095 0.1753,0.2339 0.1749,0.3814 l -0.014,5.873 c 0,0.5451 -0.4405,0.9823 -0.9856,0.981 l -4.7542,-0.011 c -0.2705,0 -0.4911,-0.2223 -0.4905,-0.4927 l 0.011,-4.5901 c 4e-4,-0.2704 -0.22,-0.4921 -0.4905,-0.4927 l -2.9509,-0.01 c -0.2705,0 -0.4921,0.2199 -0.4928,0.4905 l -0.011,4.59 c -4e-4,0.2704 -0.2228,0.4911 -0.4933,0.4905 l -4.7537,-0.011 c -0.5451,0 -0.9828,-0.4406 -0.9815,-0.9856 l 0.014,-5.873 c 3e-4,-0.1476 0.067,-0.2867 0.1817,-0.3806 l 7.7195,-6.3262 c 0.09,-0.073 0.201,-0.1101 0.3122,-0.1098 z"
       id="path4867"
       inkscape:connector-curvature="0" />
    <path
       id="path4871"
       d="m -1067.6251,175.2812 c 1.7015,0 3.081,1.3794 3.081,3.0809 0,1.7016 -1.3795,3.0811 -3.081,3.0811 -1.7016,0 -3.0811,-1.3795 -3.0811,-3.0811 0,-1.7015 1.3795,-3.0809 3.0811,-3.0809 z m 10.0767,8.3891 c -2.4573,0.5801 -4.7509,1.0911 -7.0299,1.3528 0.073,8.646 1.0532,10.5313 2.1428,13.3187 0.3095,0.7925 -0.082,1.6857 -0.8744,1.9954 -0.7926,0.3095 -1.6859,-0.082 -1.9955,-0.8745 -0.745,-1.9091 -1.4623,-3.4778 -1.9052,-6.7225 l -0.8289,0 c -0.4422,3.2395 -1.1583,4.8105 -1.9053,6.7225 -0.3094,0.7921 -1.2025,1.1841 -1.9954,0.8745 -0.7925,-0.3097 -1.1839,-1.2029 -0.8744,-1.9954 1.088,-2.7851 2.0698,-4.6678 2.1428,-13.3187 -2.279,-0.2617 -4.5726,-0.7725 -7.03,-1.3528 -0.736,-0.1738 -1.1918,-0.9112 -1.018,-1.6474 0.1738,-0.7361 0.9112,-1.1918 1.6474,-1.0179 8.2748,1.9537 10.6366,1.9498 18.8947,0 0.736,-0.1738 1.4736,0.2818 1.6475,1.0179 0.1736,0.7362 -0.2822,1.4737 -1.0182,1.6474 z"
       inkscape:connector-curvature="0"
       style="fill:#ffffff;fill-opacity:1"
       sodipodi:nodetypes="sssssccccccccccccssccc" />
    <path
       style="opacity:1;fill:none;fill-opacity:1;fill-rule:nonzero;stroke:#0e303f;stroke-width:3;stroke-linecap:round;stroke-miterlimit:0;stroke-dasharray:none;stroke-dashoffset:0;stroke-opacity:1"
       id="path4873"
       sodipodi:type="arc"
       sodipodi:cx="-1068.1899"
       sodipodi:cy="150.83058"
       sodipodi:rx="58.907867"
       sodipodi:ry="58.907867"
       sodipodi:start="5.5850536"
       sodipodi:end="2.3561945"
       d="m -1023.0639,112.96533 a 58.907867,58.907867 0 0 1 -5.3285,81.29669 58.907867,58.907867 0 0 1 -81.4517,-1.77729"
       sodipodi:open="true" />
    <path
       style="fill:none;fill-opacity:1;fill-rule:evenodd;stroke:#0e303f;stroke-width:2;stroke-linecap:butt;stroke-linejoin:miter;stroke-miterlimit:4;stroke-dasharray:none;stroke-opacity:1"
       d="m -1067.6251,209.7356 0,20.798"
       id="path4875"
       inkscape:connector-curvature="0" />
    <path
       style="fill:none;fill-opacity:1;fill-rule:evenodd;stroke:#0e303f;stroke-width:2;stroke-linecap:round;stroke-linejoin:miter;stroke-miterlimit:4;stroke-dasharray:none;stroke-opacity:1"
       d="m -1122.6251,230.4567 110,0"
       id="path4877"
       inkscape:connector-curvature="0"
       sodipodi:nodetypes="cc" />
    <path
       sodipodi:nodetypes="ccccc"
       inkscape:connector-curvature="0"
       id="path4863"
       d="m -1078.5662,159.9941 c 1.0435,-2.9505 1.7271,-23.4963 6.5487,-23.4963 5.2534,-0.7196 11.2264,19.3943 20.6177,21.1575 -7.988,0.3598 -17.4872,-20.8696 -20.3658,-19.6822 -3.1664,-0.6477 -6.1529,21.4813 -6.8006,22.021 z"
       style="fill:#ffffff;fill-opacity:1;fill-rule:evenodd;stroke:none;stroke-width:0.1;stroke-linecap:butt;stroke-linejoin:miter;stroke-miterlimit:4;stroke-dasharray:none;stroke-opacity:1;enable-background:new" />
    <path
       style="fill:#ffffff;fill-opacity:1;fill-rule:evenodd;stroke:none;stroke-width:0.1;stroke-linecap:butt;stroke-linejoin:miter;stroke-miterlimit:4;stroke-dasharray:none;stroke-opacity:1;enable-background:new"
       d="m -1078.5662,159.99404 c 1.0434,-2.95053 1.7271,-23.49625 6.5487,-23.49625 5.2534,-0.71964 11.2264,19.3943 20.6177,21.15742 -7.988,0.35982 -17.4873,-20.86957 -20.3658,-19.68216 -3.1664,-0.64768 -6.153,21.48126 -6.8006,22.02099 z"
       id="path4863-0"
       inkscape:connector-curvature="0"
       sodipodi:nodetypes="ccccc" />
    <path
       style="fill:#16bcee;fill-opacity:1;fill-rule:evenodd;stroke:none;stroke-width:0.1;stroke-linecap:butt;stroke-linejoin:miter;stroke-miterlimit:4;stroke-dasharray:none;stroke-opacity:1;enable-background:new"
       d="m -1063.8136,143.22638 c 14.5664,-10.1091 -0.3541,12.044 -18.9985,24.108 26.2346,-14.9436 32.1784,-35.2998 18.9985,-24.108 z"
       id="path4863-2-2"
       inkscape:connector-curvature="0"
       sodipodi:nodetypes="ccc" />
    <text
       xml:space="preserve"
       style="font-style:normal;font-weight:normal;font-size:11.45966434px;line-height:0%;font-family:sans-serif;letter-spacing:0px;word-spacing:0px;fill:#0e303f;fill-opacity:1;stroke:none;stroke-width:0.95497191px;stroke-linecap:butt;stroke-linejoin:miter;stroke-opacity:1"
       x="-1116.879"
       y="238.48752"
       id="text5002"
       transform="scale(0.95497188,1.0471513)"><tspan
         sodipodi:role="line"
         id="tspan5004"
         x="-1114.5634"
         y="238.48752"
         style="font-style:normal;font-variant:normal;font-weight:normal;font-stretch:normal;font-size:15.80832672px;line-height:1.25;font-family:Comfortaa;-inkscape-font-specification:Comfortaa;text-align:center;text-anchor:middle;fill:#0e303f;fill-opacity:1;stroke-width:0.95497191px">StudyATHome </tspan><tspan
         sodipodi:role="line"
         x="-1116.879"
         y="258.24792"
         style="font-style:normal;font-variant:normal;font-weight:normal;font-stretch:normal;font-size:15.80832672px;line-height:1.25;font-family:Comfortaa;-inkscape-font-specification:Comfortaa;text-align:center;text-anchor:middle;fill:#0e303f;fill-opacity:1;stroke-width:0.95497191px"
         id="tspan5006">Internationally</tspan></text>
    <g
       id="g4224"
       transform="matrix(1.1379974,0,0,1.1379974,-1379.3582,-1971.1666)"
       style="fill:#ffffff">
      <path
         transform="translate(298.9858,1807.9036)"
         id="path4220"
         d="m -46.875,45.837891 c -0.0427,0 -0.08932,0.01501 -0.138672,0.04102 l -9.509766,4.994141 c -0.0884,0.047 -0.18519,0.06836 -0.28125,0.06836 -0.129989,0 -0.259647,-0.04185 -0.367187,-0.123047 l -6.099609,-4.658203 c -0.17731,-0.1348 -0.320313,-0.0641 -0.320313,0.158203 l 0,1.167969 c 0,0.2222 0.141999,0.512738 0.318359,0.648438 l 5.867188,4.527343 c 0.17635,0.1357 0.477365,0.157829 0.671875,0.04883 l 9.724609,-5.421876 c 0.19452,-0.108999 0.353516,-0.376409 0.353516,-0.599609 l 0,-0.59375 c 0,-0.1675 -0.09056,-0.264012 -0.21875,-0.257812 z"
         style="opacity:1;fill:#ffffff;fill-opacity:1;fill-rule:nonzero;stroke:none;stroke-width:2;stroke-linecap:round;stroke-miterlimit:4;stroke-dasharray:none;stroke-dashoffset:0;stroke-opacity:1"
         inkscape:connector-curvature="0" />
      <path
         transform="translate(298.9858,1807.9036)"
         id="path4218"
         d="m -53.429688,41.587891 -2.021484,0.832031 4.208984,2.890625 1.763672,-1.007813 -3.951172,-2.714843 z"
         style="opacity:1;fill:#ffffff;fill-opacity:1;fill-rule:nonzero;stroke:none;stroke-width:2;stroke-linecap:round;stroke-miterlimit:4;stroke-dasharray:none;stroke-dashoffset:0;stroke-opacity:1"
         inkscape:connector-curvature="0" />
      <path
         transform="translate(298.9858,1807.9036)"
         id="path4214"
         d="m -53.378906,40.654297 c -0.12743,-0.01 -0.255862,0.01078 -0.357422,0.05078 l -8.916016,3.960938 c -0.2036,0.09 -0.224205,0.272903 -0.04687,0.408203 l 5.634766,4.302734 c 0.17731,0.1358 0.480834,0.159641 0.677734,0.05664 l 8.794922,-4.617188 c 0.19738,-0.1032 0.206855,-0.286456 0.02148,-0.410156 l -5.462891,-3.642578 c -0.0927,-0.062 -0.218283,-0.09848 -0.345703,-0.109375 z m -0.0059,0.503906 c 0.0328,0 0.0636,0.01616 0.0918,0.03516 l 4.306641,2.958985 c 0.0573,0.039 0.09079,0.104028 0.08789,0.173828 -0.002,0.069 -0.04138,0.133569 -0.101562,0.167969 l -2.152344,1.230468 c -0.0306,0.018 -0.06518,0.02539 -0.09961,0.02539 -0.0401,0 -0.08082,-0.0102 -0.115235,-0.0332 l -4.617187,-3.175781 c -0.0612,-0.042 -0.09609,-0.1139 -0.08789,-0.1875 0.008,-0.074 0.05669,-0.137816 0.125,-0.166016 l 2.464844,-1.013672 c 0.0313,-0.013 0.06486,-0.01767 0.09766,-0.01367 l 0,-0.002 z"
         style="opacity:1;fill:#ffffff;fill-opacity:1;fill-rule:nonzero;stroke:none;stroke-width:2;stroke-linecap:round;stroke-miterlimit:4;stroke-dasharray:none;stroke-dashoffset:0;stroke-opacity:1"
         inkscape:connector-curvature="0" />
      <path
         transform="translate(298.9858,1807.9036)"
         id="path4210"
         d="m -63.15625,39.771484 0,3.285157 c 0,0.2228 0.166587,0.335553 0.373047,0.251953 l 1.035156,-0.419922 c 0.20646,-0.084 0.373047,-0.330034 0.373047,-0.552734 l 0,-1.908204 c -0.72022,-0.023 -1.33631,-0.33565 -1.78125,-0.65625 z"
         style="opacity:1;fill:#ffffff;fill-opacity:1;fill-rule:nonzero;stroke:none;stroke-width:2;stroke-linecap:round;stroke-miterlimit:4;stroke-dasharray:none;stroke-dashoffset:0;stroke-opacity:1"
         inkscape:connector-curvature="0" />
      <path
         transform="translate(298.9858,1807.9036)"
         id="path4208"
         d="m -63.15625,35.720703 0,3.535156 c 0.39811,0.3317 1.03092,0.738032 1.78125,0.769532 l 0,-3.648438 c -0.72022,-0.023 -1.33631,-0.33555 -1.78125,-0.65625 z"
         style="opacity:1;fill:#ffffff;fill-opacity:1;fill-rule:nonzero;stroke:none;stroke-width:2;stroke-linecap:round;stroke-miterlimit:4;stroke-dasharray:none;stroke-dashoffset:0;stroke-opacity:1"
         inkscape:connector-curvature="0" />
      <path
         transform="translate(298.9858,1807.9036)"
         id="path4206"
         d="m -62.929688,33.908203 c -0.13307,0.01 -0.226562,0.108391 -0.226562,0.275391 l 0,1.021484 c 0.39811,0.3316 1.03092,0.737031 1.78125,0.769531 l 0,-1.03125 c 0,-0.2231 -0.166064,-0.4751 -0.371094,-0.5625 L -62.785156,33.9375 c -0.0511,-0.022 -0.100171,-0.0313 -0.144532,-0.0293 z"
         style="opacity:1;fill:#ffffff;fill-opacity:1;fill-rule:nonzero;stroke:none;stroke-width:2;stroke-linecap:round;stroke-miterlimit:4;stroke-dasharray:none;stroke-dashoffset:0;stroke-opacity:1"
         inkscape:connector-curvature="0" />
      <path
         transform="translate(298.9858,1807.9036)"
         id="path4204"
         d="m -52.408203,32.234375 0,0.002 c -0.0251,0 -0.05152,0.0096 -0.07813,0.01563 l -7.292969,2.21875 c -0.21315,0.065 -0.386719,0.298784 -0.386719,0.521485 l 0,6.841796 c 0,0.2232 0.165541,0.330635 0.369141,0.240235 l 6.240234,-2.775391 c 0.18974,-0.083 0.409502,-0.06517 0.582032,0.04883 l 0.539062,0.361328 c 0.18543,0.1238 0.335938,0.04116 0.335938,-0.18164 l 0,-6.990235 c 0,-0.195 -0.132774,-0.318734 -0.308594,-0.302734 z"
         style="opacity:1;fill:#ffffff;fill-opacity:1;fill-rule:nonzero;stroke:none;stroke-width:2;stroke-linecap:round;stroke-miterlimit:4;stroke-dasharray:none;stroke-dashoffset:0;stroke-opacity:1"
         inkscape:connector-curvature="0" />
    </g>
    <g
       transform="matrix(0.37092272,0,0,0.37092272,-1171.925,-4.865)"
       id="g4170"
       style="stroke:#ffffff;stroke-opacity:1;fill:none">
      <circle
         style="opacity:1;fill:none;fill-opacity:1;stroke:#ffffff;stroke-width:5.39195871;stroke-linecap:round;stroke-miterlimit:4;stroke-dasharray:none;stroke-opacity:1"
         id="circle4172"
         cx="281.19049"
         cy="421.61353"
         r="55" />
      <g
         transform="matrix(0.1847753,0,0,0.1847753,134.242,240.87292)"
         id="g4174"
         inkscape:label="Layer 1"
         style="stroke:#ffffff;stroke-opacity:1;fill:none">
        <g
           transform="matrix(4.1999887,0,0,4.1999887,-2248.6971,-580.62625)"
           id="g4176"
           style="stroke:#ffffff;stroke-opacity:1;enable-background:new;fill:none" />
      </g>
      <circle
         r="55"
         cy="421.61353"
         cx="281.19049"
         id="circle4178"
         style="opacity:1;fill:none;fill-opacity:1;stroke:#ffffff;stroke-width:5.39195871;stroke-linecap:round;stroke-miterlimit:4;stroke-dasharray:none;stroke-opacity:1" />
      <circle
         style="opacity:1;fill:none;fill-opacity:1;stroke:#ffffff;stroke-width:5.39195871;stroke-linecap:round;stroke-miterlimit:4;stroke-dasharray:none;stroke-opacity:1"
         id="circle4180"
         cx="281.19049"
         cy="421.61353"
         r="55" />
    </g>
  </g>
</svg>
