<?xml version="1.0" encoding="UTF-8" standalone="no"?>
<!DOCTYPE svg PUBLIC "-//W3C//DTD SVG 1.0//EN"
"http://www.w3.org/TR/2001/REC-SVG-20010904/DTD/svg10.dtd">
<!-- Created with Sodipodi ("http://www.sodipodi.com/") -->
<svg
   xmlns="http://www.w3.org/2000/svg"
   xmlns:xlink="http://www.w3.org/1999/xlink"
   version="1.0"
   x="0"
   y="0"
   width="60"
   height="60"
   id="svg1">
  <defs
     id="defs3">
    <linearGradient
       id="linearGradient772">
      <stop
         style="stop-color:#000000;stop-opacity:1;"
         offset="0"
         id="stop773" />
      <stop
         style="stop-color:#ffffff;stop-opacity:1;"
         offset="1"
         id="stop774" />
    </linearGradient>
    <linearGradient
       id="linearGradient775"
       xlink:href="#linearGradient772" />
  </defs>
  <path
     d="M 12.23632 47.94363 L 48.04554 48.12357 L 48.04554 21.67153 L 30.05096 3.676945 L 12.14635 21.58156 L 12.23632 47.94363 z "
     transform="matrix(1.149797,0,0,1.149797,-4.878568,0.708839)"
     style="font-size:12;fill:#cccccc;fill-rule:evenodd;stroke-width:2.71787;stroke-linecap:round;stroke-linejoin:round;"
     id="path661" />
  <path
     d="M 37.64328 55.14147 L 37.64328 38.22655 L 21.80804 38.22655 L 21.80804 55.14147 "
     style="font-size:12;fill:#b3b3b3;fill-rule:evenodd;stroke:#3c3c3c;stroke-width:3.125;stroke-linecap:round;stroke-linejoin:round;"
     id="path832" />
  <path
     d="M 12.23632 47.94363 L 48.04554 48.12357 L 48.04554 21.67153 L 30.05096 3.676945 L 12.14635 21.58156 L 12.23632 47.94363 z "
     transform="matrix(1.149797,0,0,1.149797,-4.878568,0.708839)"
     style="font-size:12;fill:none;fill-rule:evenodd;stroke:#3c3c3c;stroke-width:2.71787;stroke-linecap:round;stroke-linejoin:round;"
     id="path833" />
  <path
     d="M 30.59375 5.65625 L 12.6875 23.5625 L 12.6875 23.84375 L 48.59375 23.84375 L 48.59375 23.65625 L 45.53125 20.59375 L 45.53125 5.65625 L 39.59375 5.65625 L 39.59375 14.65625 L 30.59375 5.65625 z "
     transform="matrix(1.149797,0,0,1.149797,-5.499272,-1.567073)"
     style="font-size:12;fill:#7f7f7f;fill-rule:evenodd;stroke:#3c3c3c;stroke-width:2.71787;stroke-linecap:round;stroke-linejoin:round;"
     id="path666" />
</svg>
