<?xml version="1.0" encoding="UTF-8" standalone="no"?>
<!DOCTYPE svg PUBLIC "-//W3C//DTD SVG 20010904//EN"
"http://www.w3.org/TR/2001/REC-SVG-20010904/DTD/svg10.dtd">
<!-- Created with Sodipodi ("http://www.sodipodi.com/") --><svg height="350pt" id="svg32" sodipodi:docbase="/home/mira/" sodipodi:docname="/home/mira/home.svg" sodipodi:version="0.34" style="fill:#000000;fill-opacity:0.5;stroke:none" width="350pt" xmlns="http://www.w3.org/2000/svg" xmlns:sodipodi="http://sodipodi.sourceforge.net/DTD/sodipodi-0.dtd" xmlns:xlink="http://www.w3.org/1999/xlink">
  <metadata>
    <rdf:RDF xmlns:cc="http://web.resource.org/cc/" xmlns:dc="http://purl.org/dc/elements/1.1/" xmlns:rdf="http://www.w3.org/1999/02/22-rdf-syntax-ns#">
      <cc:Work rdf:about="">
        <dc:title>Homes Clipart</dc:title>
        <dc:description></dc:description>
        <dc:subject>
          <rdf:Bag>
            <rdf:li>house</rdf:li>
            <rdf:li></rdf:li>
            <rdf:li>building</rdf:li>
            <rdf:li>home</rdf:li>
          </rdf:Bag>
        </dc:subject>
        <dc:publisher>
          <cc:Agent rdf:about="http://www.openclipart.org">
            <dc:title>Jose Hevia </dc:title>
          </cc:Agent>
        </dc:publisher>
        <dc:creator>
          <cc:Agent>
            <dc:title>Jose Hevia</dc:title>
          </cc:Agent>
        </dc:creator>
        <dc:rights>
          <cc:Agent>
            <dc:title>Jose Hevia </dc:title>
          </cc:Agent>
        </dc:rights>
        <dc:date></dc:date>
        <dc:format>image/svg+xml</dc:format>
        <dc:type rdf:resource="http://purl.org/dc/dcmitype/StillImage"/>
        <cc:license rdf:resource="http://web.resource.org/cc/PublicDomain"/>
        <dc:language>en</dc:language>
      </cc:Work>
      <cc:License rdf:about="http://web.resource.org/cc/PublicDomain">
        <cc:permits rdf:resource="http://web.resource.org/cc/Reproduction"/>
        <cc:permits rdf:resource="http://web.resource.org/cc/Distribution"/>
        <cc:permits rdf:resource="http://web.resource.org/cc/DerivativeWorks"/>
      </cc:License>
    </rdf:RDF>
  </metadata>
  <defs id="defs34">
    <linearGradient id="linearGradient60">
      <stop id="stop61" offset="0.000000" style="stop-color:#fffa00;stop-opacity:1;"/>
      <stop id="stop62" offset="1.000000" style="stop-color:#ffffff;stop-opacity:1;"/>
    </linearGradient>
    <linearGradient id="linearGradient57">
      <stop id="stop58" offset="0.000000" style="stop-color:#b55f07;stop-opacity:1;"/>
      <stop id="stop59" offset="1.000000" style="stop-color:#ffba00;stop-opacity:1;"/>
    </linearGradient>
    <linearGradient id="linearGradient129">
      <stop id="stop130" offset="0.000000" style="stop-color:#ffffff;stop-opacity:0.803922;"/>
      <stop id="stop131" offset="1.000000" style="stop-color:#000000;stop-opacity:0;"/>
    </linearGradient>
    <linearGradient id="linearGradient132" x1="0.29393" x2="0.85623" xlink:href="#linearGradient129" y1="0.125996" y2="1.0028"/>
    <linearGradient id="linearGradient142" x1="0.877848" x2="0.014196" xlink:href="#linearGradient129" y1="0.382857" y2="0.388571"/>
    <linearGradient id="linearGradient48" x1="1.45453" x2="0.0661232" xlink:href="#linearGradient129" y1="0.508571" y2="0.542857"/>
    <linearGradient id="linearGradient49" x1="0.493086" x2="0.57144" xlink:href="#linearGradient129" y1="0.428571" y2="0.514286"/>
    <linearGradient id="linearGradient50" x1="0.450624" x2="0.407689" xlink:href="#linearGradient129" y1="0.428571" y2="0.474286"/>
    <linearGradient id="linearGradient53" x1="-0.0101793" x2="0.631844" xlink:href="#linearGradient57" y1="0.611429" y2="0.6"/>
    <linearGradient id="linearGradient54" x1="1.09466" x2="0.413062" xlink:href="#linearGradient129" y1="0.125" y2="0.8125"/>
    <linearGradient id="linearGradient59" x1="0.0823339" x2="0.724897" xlink:href="#linearGradient60" y1="0.125714" y2="0.891429"/>
  </defs>
  <sodipodi:namedview id="base"/>
  <path d="M 41.69817 309.9808 C 44.46337 325.5628 27.48227 327.7288 25.31637 334.2258 C 40.62417 345.2508 0.870369 362.0508 8.279569 366.9898 C 13.53997 371.5928 91.75036 403.1138 104.6044 404.3398 C 183.3154 419.5218 346.6553 408.6708 376.5423 394.5108 C 412.3573 374.3508 430.4683 372.1648 436.1693 362.4028 C 432.7943 354.3078 401.1353 339.2038 407.9943 332.9158 C 402.2793 325.7728 377.6463 326.5128 383.0933 311.2918 C 365.8293 306.3588 379.7213 311.2598 367.3673 302.1178 C 362.7513 300.9638 361.5483 290.9778 356.8823 290.9778 C 314.7944 262.7258 109.4214 271.9758 65.94337 295.5658 C 59.74137 307.8988 48.94437 307.5658 41.69817 309.9808 z " id="path19" style="fill:#ffed44;fill-opacity:1;fill-rule:evenodd;stroke:none;stroke-opacity:1;stroke-width:1px;stroke-linejoin:miter;stroke-linecap:butt;"/>
  <path d="M 71.70943 349.0255 C 77.99559 359.0884 44.00107 383.8291 55.79665 388.2174 C 190.807 377.7258 231.8347 370.8409 306.1141 390.545 C 314.6711 385.7698 388.8869 350.1364 371.3018 346.6979 C 344.1113 343.5934 179.9494 342.732 71.70943 349.0255 z " id="path20" style="fill:#000000;fill-opacity:0.226601;fill-rule:evenodd;stroke:none;stroke-opacity:1;stroke-width:1px;stroke-linejoin:miter;stroke-linecap:butt;"/>
  <path d="M 77.04606 163.3995 C 77.04606 161.0305 171.459 87.2405 225.356 48.5332 C 277.852 86.9035 367.561 158.9405 366.328 162.6395 C 365.391 170.1325 366.536 334.4245 366.021 342.9435 C 352.915 342.2875 275.132 341.1705 251.349 340.9775 C 251.706 330.4935 252.786 233.3185 252.786 229.2405 C 252.02 227.7095 196.519 227.0225 187.005 228.3325 C 187.207 233.6755 183.702 333.2685 183.855 343.5985 C 169.703 343.4625 88.18605 344.2545 78.35706 344.2545 C 76.68806 343.4195 77.04606 169.9525 77.04606 163.3995 z " id="path12" style="font-size:12;fill:url(#linearGradient59);fill-opacity:1;fill-rule:evenodd;stroke:#000000;stroke-width:12.5;stroke-dasharray:none;"/>
  <path d="M 247.417 116.8751 C 247.417 129.5351 235.821 139.8101 221.533 139.8101 C 207.246 139.8101 195.65 129.5351 195.65 116.8751 C 195.65 104.2161 207.246 93.94107 221.533 93.94107 C 235.821 93.94107 247.417 104.2161 247.417 116.8751 z " id="path16" style="font-size:12;fill-opacity:1;fill-rule:evenodd;stroke:#000000;stroke-width:1;"/>
  <path d="M 44.52716 182.9405 C 59.88064 172.1188 212.7679 47.92028 225.9607 39.79166 C 238.1275 48.57497 389.3637 175.8609 398.6281 182.6114 C 405.0343 177.7278 397.6448 169.5279 400.9215 159.5484 C 392.5491 150.3584 236.38 25.80145 226.4873 16.56682 C 215.0159 25.67809 48.12459 150.7737 38.62617 159.4374 C 44.93483 165.555 39.13086 176.6755 44.52716 182.9405 z " id="path14" style="fill:#a1282e;fill-opacity:1;fill-rule:evenodd;stroke:none;stroke-opacity:1;stroke-width:1px;stroke-linejoin:miter;stroke-linecap:butt;"/>
  <path d="M 247.3808 231.4111 C 245.5267 240.9283 247.2792 325.1842 244.7759 349.1488 C 231.6826 350.2745 197.6028 351.9261 187.4738 348.1067 C 187.3935 332.0268 187.1956 242.1643 188.3421 231.4101 C 199.3976 232.8708 241.4264 230.3691 247.3808 231.4111 z " id="path52" style="fill:url(#linearGradient53);fill-opacity:1;fill-rule:evenodd;stroke:none;stroke-opacity:1;stroke-width:1px;stroke-linejoin:miter;stroke-linecap:butt;"/>
  <path d="M 247.2533 117.5589 C 247.2533 130.9869 235.3633 141.8859 220.7143 141.8859 C 206.0653 141.8859 194.1763 130.9869 194.1763 117.5589 C 194.1763 104.1299 206.0653 93.23191 220.7143 93.23191 C 235.3633 93.23191 247.2533 104.1299 247.2533 117.5589 z " id="path56" style="font-size:12;fill:none;fill-opacity:1;fill-rule:evenodd;stroke:#ffc200;stroke-width:5.599999;"/>
  <path d="M 312.2997 171.2898 A 28.50424 24.57262 0 1 1 312.2997 171.2898 A 28.50424 24.57262 0 1 1  312.2997 171.2898 z" id="path63" sodipodi:cx="283.795471" sodipodi:cy="171.289841" sodipodi:end="6.28318531" sodipodi:rx="28.50424" sodipodi:ry="24.5726204" sodipodi:start="0" sodipodi:type="arc" style="font-size:12;fill:none;fill-opacity:1;fill-rule:evenodd;stroke:url(#linearGradient54);stroke-width:5;" transform="matrix(0.942528,0,0,0.973333,-46.93464,-50.74603)"/>
  <path d="M 39.78528 183.8218 C 50.26018 177.8358 60.84617 166.6358 72.62817 162.7088 C 70.18917 199.2228 70.66717 182.9448 70.28217 208.4538 C 110.6092 193.3308 179.5092 111.3058 198.1332 121.6558 C 247.9122 153.6928 273.6702 167.4008 296.6632 186.1688 C 327.1052 189.6958 375.5392 184.4188 376.4242 163.8818 C 383.8672 167.1028 388.0362 173.2068 402.2292 181.4758 C 401.7602 173.6178 402.4132 165.0558 401.0562 155.6718 C 381.3332 139.1628 241.2522 28.81021 226.2862 14.91661 C 204.0882 30.66791 68.41617 136.5308 39.78528 156.8448 C 40.63518 164.7878 39.78528 173.0178 39.78528 183.8218 z " id="path64" style="fill:url(#linearGradient132);fill-opacity:1;fill-rule:evenodd;stroke:none;stroke-opacity:1;stroke-width:1px;stroke-linejoin:miter;stroke-linecap:butt;"/>
</svg>
