<?xml version="1.0" encoding="UTF-8" standalone="no"?>
<!-- Created with Inkscape (http://www.inkscape.org/) -->

<svg
   xmlns:dc="http://purl.org/dc/elements/1.1/"
   xmlns:cc="http://creativecommons.org/ns#"
   xmlns:rdf="http://www.w3.org/1999/02/22-rdf-syntax-ns#"
   xmlns:svg="http://www.w3.org/2000/svg"
   xmlns="http://www.w3.org/2000/svg"
   xmlns:sodipodi="http://sodipodi.sourceforge.net/DTD/sodipodi-0.dtd"
   xmlns:inkscape="http://www.inkscape.org/namespaces/inkscape"
   width="210mm"
   height="297mm"
   viewBox="0 0 210 297"
   version="1.1"
   id="svg8"
   inkscape:version="0.92.2 (5c3e80d, 2017-08-06)"
   sodipodi:docname="mouse.svg">
  <defs
     id="defs2" />
  <sodipodi:namedview
     id="base"
     pagecolor="#ffffff"
     bordercolor="#666666"
     borderopacity="1.0"
     inkscape:pageopacity="0.0"
     inkscape:pageshadow="2"
     inkscape:zoom="1.4"
     inkscape:cx="424.41337"
     inkscape:cy="661.52281"
     inkscape:document-units="mm"
     inkscape:current-layer="layer1"
     showgrid="false"
     showguides="false"
     inkscape:window-width="1920"
     inkscape:window-height="1017"
     inkscape:window-x="1912"
     inkscape:window-y="-8"
     inkscape:window-maximized="1" />
  <metadata
     id="metadata5">
    <rdf:RDF>
      <cc:Work
         rdf:about="">
        <dc:format>image/svg+xml</dc:format>
        <dc:type
           rdf:resource="http://purl.org/dc/dcmitype/StillImage" />
        <dc:title />
      </cc:Work>
    </rdf:RDF>
  </metadata>
  <g
     inkscape:label="Ebene 1"
     inkscape:groupmode="layer"
     id="layer1">
    <path
       style="fill:#000000;stroke-width:0.16493507"
       d="m 105.68377,169.94646 c -6.742557,-0.66235 -12.306737,-3.23365 -16.910577,-7.81468 -4.129901,-4.10943 -6.792901,-9.37471 -7.659483,-15.14431 -0.368996,-2.45674 -0.376369,-33.65976 -0.0085,-35.90841 0.818762,-5.00459 2.903477,-8.89176 6.381233,-11.898449 2.14002,-1.85016 4.66415,-3.124116 7.87484,-3.974516 1.42668,-0.377879 1.97114,-0.426375 5.580597,-0.497086 2.19982,-0.0431 3.99967,-0.131232 3.99967,-0.195859 0,0 0,0 4.38969,0.0724 l 4.60873,0.09962 c 4.23298,0.0915 4.7376,0.133863 6.18964,0.519639 3.21598,0.854422 5.73615,2.126786 7.87485,3.975804 3.47774,3.00669 5.56245,6.89386 6.38122,11.89845 0.36789,2.24865 0.36052,33.45167 -0.008,35.90841 -0.86658,5.7696 -3.52958,11.03488 -7.65949,15.14431 -4.07747,4.05727 -8.8115,6.4932 -14.60148,7.5133 -1.34306,0.23663 -5.23526,0.41899 -6.43247,0.30138 z m 5.48927,-3.77368 c 9.63829,-1.44765 17.48183,-8.84575 19.41586,-18.31321 0.48754,-2.38661 0.57194,-4.81498 0.57465,-16.53474 l 0.003,-11.58669 h -8.97561 -8.9756 l -0.0546,2.95721 c -0.0803,4.34765 0.004,4.28132 -5.41498,4.28132 -3.87517,0 -4.45066,-0.0986 -5.01507,-0.85891 -0.31468,-0.42392 -0.35017,-0.72761 -0.39991,-3.42241 l -0.0546,-2.95721 h -8.975607 -8.975601 l 0.0027,11.58669 c 0.0027,11.71976 0.08711,14.14813 0.574654,16.53474 1.512744,7.4052 6.709047,13.71191 13.772007,16.71497 3.892437,1.655 8.337167,2.22334 12.499017,1.59824 z m -1.6133,-48.24892 V 112.481 h -1.81428 -1.81429 v 5.44286 5.44286 h 1.81429 1.81428 z m -7.25622,-4.41201 c 5e-4,-1.42875 0.0773,-2.87286 0.17073,-3.20913 0.26085,-0.93922 0.87661,-1.28535 2.2866,-1.28535 h 1.17032 v -5.44286 -5.442859 h -2.89286 c -4.823097,0 -7.384847,0.426316 -9.960257,1.657542 -3.77038,1.802507 -6.306354,4.690877 -7.689794,8.758367 -0.533898,1.56972 -0.859162,3.43511 -0.995027,5.70649 l -0.11099,1.85552 h 9.010181 9.010177 l 9.9e-4,-2.59772 z m 28.79417,0.7422 c -0.42763,-7.14905 -3.26417,-11.8734 -8.68482,-14.464857 -2.57541,-1.231226 -5.13717,-1.657542 -9.96026,-1.657542 h -2.89287 v 5.442859 5.44286 h 1.17032 c 1.41,0 2.02576,0.34613 2.28661,1.28535 0.0934,0.33627 0.17022,1.78038 0.17072,3.20913 l 9.3e-4,2.59772 h 9.01018 9.01018 z"
       id="path4515"
       inkscape:connector-curvature="0"
       sodipodi:nodetypes="ccsccscccscssccccccscccccscccccccscccccccccccccscccsscscccccscscccscccccs"
       inkscape:export-xdpi="26.898182"
       inkscape:export-ydpi="26.898182" />
    <path
       style="opacity:1;fill:#ffffff;fill-opacity:1;stroke:#ffffff;stroke-width:1.46034646;stroke-miterlimit:4;stroke-dasharray:none;stroke-dashoffset:0;stroke-opacity:1"
       d="m 398.24393,628.29278 c -20.90059,-2.60605 -37.69947,-10.54576 -52.20314,-24.67294 -10.43925,-10.16827 -18.16453,-22.42841 -22.46917,-35.65893 -3.99334,-12.27375 -4.17131,-15.00478 -4.46784,-68.5641 l -0.25937,-46.84582 h 33.57019 33.57019 l 0.32119,2.34333 c 0.17665,1.28884 0.33109,5.66406 0.34319,9.72272 0.0334,11.22356 0.76261,13.36515 4.9808,14.62895 2.79593,0.83768 20.59569,1.28948 26.39136,0.66988 9.11072,-0.97401 9.51876,-1.66982 9.90158,-16.88455 l 0.26369,-10.48033 h 33.76852 33.76853 l -0.0294,22.60216 c -0.0511,39.29491 -0.80182,73.93077 -1.73038,79.83847 -4.39621,27.96966 -22.83063,52.4916 -48.86261,64.99832 -7.13642,3.4286 -14.94801,6.00256 -22.25734,7.33392 -6.53941,1.19112 -18.91015,1.67837 -24.59997,0.96892 z"
       id="path4517"
       inkscape:connector-curvature="0"
       transform="scale(0.26458333)"
       inkscape:export-xdpi="26.898182"
       inkscape:export-ydpi="26.898182" />
    <path
       style="opacity:1;fill:#ffffff;fill-opacity:1;stroke:#ffffff;stroke-width:1.46034646;stroke-miterlimit:4;stroke-dasharray:none;stroke-dashoffset:0;stroke-opacity:1"
       d="m 400.76931,445.73246 v -20.45559 h 6.56599 6.56599 v 20.45559 20.45559 h -6.56599 -6.56599 z"
       id="path4519"
       inkscape:connector-curvature="0"
       transform="scale(0.26458333)"
       inkscape:export-xdpi="26.898182"
       inkscape:export-ydpi="26.898182" />
    <path
       style="opacity:1;fill:#ff0000;fill-opacity:1;stroke:#ff0000;stroke-width:1.46034646;stroke-miterlimit:4;stroke-dasharray:none;stroke-dashoffset:0;stroke-opacity:1"
       d="m 319.16814,432.4742 c 1.16626,-19.30652 6.40186,-32.8653 16.86714,-43.68135 4.53554,-4.68756 9.47025,-8.18987 15.82718,-11.23303 9.86353,-4.72182 19.35147,-6.32611 37.41327,-6.32611 h 10.9885 v 20.13185 20.13186 l -4.22519,0.2636 c -4.73432,0.29536 -6.55974,0.98723 -8.10376,3.07146 -0.98139,1.32477 -1.06744,2.20323 -1.22453,12.50063 l -0.16897,11.07574 h -33.86607 -33.86607 z"
       id="path4521"
       inkscape:connector-curvature="0"
       transform="scale(0.26458333)"
       inkscape:export-xdpi="26.898182"
       inkscape:export-ydpi="26.898182" />
    <path
       style="opacity:1;fill:#ffffff;fill-opacity:1;stroke:#ffffff;stroke-width:1.46034646;stroke-miterlimit:4;stroke-dasharray:none;stroke-dashoffset:0;stroke-opacity:1"
       d="m 427.93705,427.92852 c -0.32445,-14.66449 -0.82836,-15.54234 -9.26355,-16.13762 l -4.26713,-0.30113 v -20.19023 -20.19022 l 13.76333,0.25774 c 15.08551,0.28251 20.13516,0.90653 27.76531,3.43116 14.25423,4.71639 25.49724,14.29903 32.01582,27.28774 3.62077,7.21463 6.27877,17.27988 6.99115,26.4739 0.17219,2.22234 0.44082,5.3475 0.59696,6.9448 l 0.28389,2.90419 h -33.82695 -33.82695 z"
       id="path4523"
       inkscape:connector-curvature="0"
       transform="scale(0.26458333)"
       inkscape:export-xdpi="26.898182"
       inkscape:export-ydpi="26.898182" />
    <text
       xml:space="preserve"
       style="font-style:normal;font-weight:normal;font-size:21.78099251px;line-height:1.25;font-family:sans-serif;letter-spacing:0px;word-spacing:0px;fill:#000000;fill-opacity:1;stroke:none;stroke-width:0.54452485"
       x="93.125107"
       y="148.95808"
       id="text4527"
       inkscape:export-xdpi="26.898182"
       inkscape:export-ydpi="26.898182"><tspan
         sodipodi:role="line"
         id="tspan4525"
         x="93.125107"
         y="148.95808"
         style="stroke-width:0.54452485">2X</tspan></text>
    <path
       style="fill:#000000;stroke-width:0.16493508"
       d="m 38.696889,171.93116 c -6.74256,-0.66235 -12.30674,-3.23365 -16.91058,-7.81468 -4.1299,-4.10943 -6.7929,-9.37471 -7.65948,-15.14431 -0.369,-2.45674 -0.37637,-33.65976 -0.008,-35.90841 0.81876,-5.00459 2.90348,-8.89176 6.38123,-11.89845 2.14002,-1.850158 4.66415,-3.124118 7.87484,-3.974518 1.42668,-0.37788 1.97114,-0.42637 5.5806,-0.49708 2.19982,-0.0431 3.99967,-0.13123 3.99967,-0.19586 0,0 0,0 4.38969,0.0724 l 4.60873,0.0996 c 4.23298,0.0915 4.7376,0.13386 6.18964,0.51964 3.21598,0.85442 5.73615,2.12678 7.87485,3.975798 3.47774,3.00669 5.56245,6.89386 6.38122,11.89845 0.36789,2.24865 0.36052,33.45167 -0.008,35.90841 -0.86658,5.7696 -3.52958,11.03488 -7.65949,15.14431 -4.07747,4.05727 -8.8115,6.4932 -14.60148,7.5133 -1.34306,0.23663 -5.23526,0.41899 -6.43247,0.30138 z m 5.48927,-3.77368 c 9.63829,-1.44765 17.48183,-8.84575 19.41586,-18.31321 0.48754,-2.38661 0.57194,-4.81498 0.57465,-16.53474 l 0.003,-11.58669 h -8.97561 -8.9756 l -0.0546,2.95721 c -0.0803,4.34765 0.004,4.28132 -5.41498,4.28132 -3.87517,0 -4.45066,-0.0986 -5.01507,-0.85891 -0.31468,-0.42392 -0.35017,-0.72761 -0.39991,-3.42241 l -0.0546,-2.95721 h -8.97562 -8.9756 l 0.003,11.58669 c 0.003,11.71976 0.0871,14.14813 0.57466,16.53474 1.51274,7.4052 6.70904,13.71191 13.772,16.71497 3.89244,1.655 8.33717,2.22334 12.49902,1.59824 z m -1.6133,-48.24892 v -5.44286 h -1.81428 -1.81429 v 5.44286 5.44286 h 1.81429 1.81428 z m -7.25622,-4.41201 c 5e-4,-1.42875 0.0773,-2.87286 0.17073,-3.20913 0.26085,-0.93922 0.87661,-1.28535 2.2866,-1.28535 h 1.17032 v -5.44286 -5.44286 h -2.89286 c -4.8231,0 -7.38485,0.42632 -9.96026,1.65754 -3.77038,1.80251 -6.30635,4.69088 -7.68979,8.75837 -0.5339,1.56972 -0.85916,3.43511 -0.99503,5.70649 l -0.11099,1.85552 h 9.01018 9.01018 l 9.8e-4,-2.59772 z m 28.79417,0.7422 c -0.42763,-7.14905 -3.26417,-11.8734 -8.68482,-14.46486 -2.57541,-1.23122 -5.13717,-1.65754 -9.96026,-1.65754 h -2.89287 v 5.44286 5.44286 h 1.17032 c 1.41,0 2.02576,0.34613 2.28661,1.28535 0.0934,0.33627 0.17022,1.78038 0.17072,3.20913 l 0.001,2.59772 h 9.01018 9.01018 z"
       id="path4515-8"
       inkscape:connector-curvature="0"
       sodipodi:nodetypes="ccsccscccscssccccccscccccscccccccscccccccccccccscccsscscccccscscccscccccs"
       inkscape:export-xdpi="26.898182"
       inkscape:export-ydpi="26.898182" />
    <path
       style="opacity:1;fill:#ffffff;fill-opacity:1;stroke:#ffffff;stroke-width:0.38638332;stroke-miterlimit:4;stroke-dasharray:none;stroke-dashoffset:0;stroke-opacity:1"
       d="m 38.381829,168.2205 c -5.52995,-0.68952 -9.97466,-2.79024 -13.81209,-6.52805 -2.76205,-2.69036 -4.80603,-5.93419 -5.94496,-9.43476 -1.05657,-3.24743 -1.10366,-3.97002 -1.18212,-18.14092 l -0.0686,-12.39462 h 8.88211 8.88211 l 0.085,0.62 c 0.0467,0.34101 0.0876,1.49862 0.0908,2.57247 0.009,2.96957 0.20178,3.5362 1.31784,3.87058 0.73975,0.22163 5.44927,0.34117 6.98271,0.17724 2.41055,-0.25771 2.51851,-0.44181 2.61979,-4.46737 l 0.0698,-2.77292 h 8.93459 8.93459 l -0.008,5.98015 c -0.0135,10.39678 -0.21215,19.56085 -0.45783,21.12393 -1.16316,7.40031 -6.0406,13.8884 -12.92823,17.19747 -1.88818,0.90715 -3.95499,1.58818 -5.88892,1.94044 -1.73022,0.31515 -5.00331,0.44406 -6.50874,0.25636 z"
       id="path4517-6"
       inkscape:connector-curvature="0"
       inkscape:export-xdpi="26.898182"
       inkscape:export-ydpi="26.898182" />
    <path
       style="opacity:1;fill:#ffffff;fill-opacity:1;stroke:#ffffff;stroke-width:0.38638332;stroke-miterlimit:4;stroke-dasharray:none;stroke-dashoffset:0;stroke-opacity:1"
       d="m 39.049999,119.91808 v -5.41221 h 1.73725 1.73725 v 5.41221 5.41221 h -1.73725 -1.73725 z"
       id="path4519-8"
       inkscape:connector-curvature="0"
       inkscape:export-xdpi="26.898182"
       inkscape:export-ydpi="26.898182" />
    <path
       style="opacity:1;fill:#ffffff;fill-opacity:1;stroke:#ffffff;stroke-width:0.38638332;stroke-miterlimit:4;stroke-dasharray:none;stroke-dashoffset:0;stroke-opacity:1"
       d="m 17.459689,116.41016 c 0.30857,-5.10818 1.69383,-8.69561 4.46276,-11.55735 1.20003,-1.24025 2.50567,-2.16691 4.18761,-2.97208 2.60973,-1.24931 5.12008,-1.67378 9.89893,-1.67378 h 2.90737 v 5.32655 5.32656 l -1.11791,0.0697 c -1.25262,0.0782 -1.7356,0.2612 -2.14412,0.81265 -0.25966,0.35052 -0.28243,0.58294 -0.32399,3.30746 l -0.0447,2.93046 h -8.9604 -8.96039 z"
       id="path4521-6"
       inkscape:connector-curvature="0"
       inkscape:export-xdpi="26.898182"
       inkscape:export-ydpi="26.898182" />
    <path
       style="opacity:1;fill:#ff0000;fill-opacity:1;stroke:#ff0000;stroke-width:0.38638332;stroke-miterlimit:4;stroke-dasharray:none;stroke-dashoffset:0;stroke-opacity:1"
       d="m 46.238129,115.20745 c -0.0858,-3.87998 -0.21917,-4.11224 -2.45098,-4.26974 l -1.12901,-0.0797 v -5.34201 -5.34199 l 3.64154,0.0682 c 3.99138,0.0747 5.32743,0.23986 7.34624,0.90783 3.77143,1.24788 6.74615,3.78329 8.47086,7.21988 0.95799,1.90887 1.66125,4.57197 1.84974,7.00455 0.0456,0.588 0.11663,1.41486 0.15794,1.83748 l 0.0751,0.7684 h -8.95005 -8.95004 z"
       id="path4523-1"
       inkscape:connector-curvature="0"
       inkscape:export-xdpi="26.898182"
       inkscape:export-ydpi="26.898182" />
    <rect
       style="opacity:1;fill:none;fill-opacity:1;stroke:#000000;stroke-width:0.76499999;stroke-miterlimit:4;stroke-dasharray:none;stroke-dashoffset:0;stroke-opacity:1"
       id="rect4562"
       width="54.122078"
       height="75.503639"
       x="146.67561"
       y="10.264137" />
    <g
       id="g4720"
       transform="matrix(0.954878,0,0,0.954878,30.890927,78.394301)"
       inkscape:export-xdpi="37.384365"
       inkscape:export-ydpi="37.384365">
      <g
         transform="matrix(0.92839721,0,0,0.92839721,17.430338,-9.4672583)"
         id="g4643">
        <path
           style="fill:#000000;stroke-width:0.08508419"
           d="m 141.59146,89.640488 c -3.47825,-0.34168 -6.34861,-1.66812 -8.72356,-4.03131 -2.13048,-2.11991 -3.50422,-4.83608 -3.95126,-7.81241 -0.19035,-1.26736 -0.19416,-17.36389 -0.004,-18.52389 0.42236,-2.58169 1.4978,-4.58694 3.29185,-6.13799 1.10397,-0.95443 2.40607,-1.61162 4.06236,-2.05031 0.73597,-0.19494 1.01683,-0.21995 2.87883,-0.25643 1.13481,-0.0222 2.06329,-0.0677 2.06329,-0.10104 0,0 0,0 2.26448,0.0373 l 2.37749,0.0514 c 2.18364,0.0472 2.44395,0.0691 3.19301,0.26807 1.65901,0.44076 2.95908,1.09712 4.06236,2.05098 1.79404,1.55103 2.86947,3.55629 3.29184,6.13798 0.18979,1.16 0.18598,17.25654 -0.004,18.52388 -0.44704,2.97633 -1.82079,5.6925 -3.95127,7.81242 -2.10342,2.093 -4.54553,3.34961 -7.53238,3.87585 -0.69284,0.12206 -2.70069,0.21614 -3.31829,0.15547 z m 2.83172,-1.9467 c 4.97206,-0.74679 9.01826,-4.56321 10.01596,-9.44714 0.2515,-1.23117 0.29505,-2.48388 0.29644,-8.52969 l 0.002,-5.97717 h -4.63019 -4.6302 l -0.0282,1.52553 c -0.0414,2.2428 0.002,2.20857 -2.79341,2.20857 -1.99906,0 -2.29594,-0.0508 -2.58709,-0.44307 -0.16233,-0.21869 -0.18065,-0.37535 -0.2063,-1.7655 l -0.0282,-1.52553 h -4.63021 -4.63019 l 0.002,5.97717 c 0.002,6.04581 0.045,7.29852 0.29645,8.52969 0.78036,3.82008 3.46095,7.07349 7.10449,8.62266 2.00797,0.85376 4.30085,1.14695 6.4478,0.82448 z m -0.83224,-24.88991 v -2.80779 h -0.93592 -0.93593 v 2.80779 2.80777 h 0.93593 0.93592 z m -3.74322,-2.276 c 2.6e-4,-0.73705 0.0399,-1.48201 0.0881,-1.65549 0.13456,-0.4845 0.45221,-0.66306 1.17957,-0.66306 h 0.60373 v -2.80778 -2.80778 h -1.49232 c -2.48807,0 -3.80958,0.21992 -5.13815,0.85507 -1.94501,0.92985 -3.25323,2.41986 -3.96689,4.51813 -0.27542,0.80977 -0.44322,1.77205 -0.51331,2.94378 l -0.0572,0.95719 h 4.64802 4.64803 l 5.1e-4,-1.34006 z m 14.85389,0.38287 c -0.2206,-3.68794 -1.68387,-6.12507 -4.48019,-7.46191 -1.32856,-0.63515 -2.65008,-0.85507 -5.13815,-0.85507 h -1.49233 v 2.80778 2.80778 h 0.60373 c 0.72737,0 1.04501,0.17856 1.17958,0.66306 0.0482,0.17348 0.0878,0.91844 0.0881,1.65549 l 5.2e-4,1.34006 h 4.64802 4.64805 z"
           id="path4515-8-2"
           inkscape:connector-curvature="0"
           sodipodi:nodetypes="ccsccscccscssccccccscccccscccccccscccccccccccccscccsscscccccscscccscccccs" />
        <path
           style="opacity:1;fill:#ffffff;fill-opacity:1;stroke:#ffffff;stroke-width:0.19932152;stroke-miterlimit:4;stroke-dasharray:none;stroke-dashoffset:0;stroke-opacity:1"
           d="m 141.42894,87.726298 c -2.85271,-0.3557 -5.14558,-1.43939 -7.12517,-3.36759 -1.42485,-1.38786 -2.47926,-3.06124 -3.0668,-4.86706 -0.54504,-1.67524 -0.56934,-2.048 -0.60981,-9.35826 l -0.0354,-6.39395 h 4.58196 4.58197 l 0.0438,0.31984 c 0.0241,0.17591 0.0452,0.77308 0.0469,1.32704 0.005,1.5319 0.10408,1.8242 0.67983,1.9967 0.38161,0.11433 2.81107,0.17599 3.60213,0.0914 1.24352,-0.13294 1.29921,-0.22792 1.35145,-2.30456 l 0.036,-1.43045 h 4.60904 4.60904 l -0.004,3.08495 c -0.007,5.36333 -0.10944,10.09076 -0.23618,10.89709 -0.60004,3.81756 -3.11613,7.16454 -6.66922,8.87156 -0.97404,0.46798 -2.04025,0.8193 -3.03789,1.00102 -0.89255,0.16257 -2.58103,0.22907 -3.35763,0.13224 z"
           id="path4517-6-7"
           inkscape:connector-curvature="0" />
        <path
           style="opacity:1;fill:#ffffff;fill-opacity:1;stroke:#ffffff;stroke-width:0.19932152;stroke-miterlimit:4;stroke-dasharray:none;stroke-dashoffset:0;stroke-opacity:1"
           d="m 141.77362,62.808778 v -2.79196 h 0.89619 0.89618 v 2.79196 2.79198 h -0.89618 -0.89619 z"
           id="path4519-8-8"
           inkscape:connector-curvature="0" />
        <path
           style="opacity:1;fill:#ff0000;fill-opacity:1;stroke:#ff0000;stroke-width:0.19932152;stroke-miterlimit:4;stroke-dasharray:none;stroke-dashoffset:0;stroke-opacity:1"
           d="m 130.63594,60.999168 c 0.15919,-2.63512 0.87379,-4.48575 2.30219,-5.96203 0.61905,-0.6398 1.29258,-1.11783 2.16023,-1.53319 1.34627,-0.64448 2.64127,-0.86344 5.10651,-0.86344 h 1.49981 v 2.74778 2.74779 l -0.57669,0.036 c -0.64618,0.0403 -0.89534,0.13475 -1.10608,0.41922 -0.13394,0.18082 -0.14569,0.30072 -0.16713,1.7062 l -0.023,1.51172 h -4.62236 -4.62234 z"
           id="path4521-6-3"
           inkscape:connector-curvature="0" />
        <path
           style="opacity:1;fill:#ffffff;fill-opacity:1;stroke:#ffffff;stroke-width:0.19932152;stroke-miterlimit:4;stroke-dasharray:none;stroke-dashoffset:0;stroke-opacity:1"
           d="m 145.48172,60.378738 c -0.0443,-2.00155 -0.11306,-2.12136 -1.26436,-2.20261 l -0.58243,-0.0411 v -2.75575 -2.75575 l 1.87854,0.0352 c 2.05902,0.0385 2.74824,0.12374 3.78967,0.46832 1.94555,0.64374 3.48011,1.95166 4.36981,3.72448 0.4942,0.98471 0.85699,2.35852 0.95422,3.6134 0.0236,0.30333 0.0601,0.72988 0.0815,0.94789 l 0.0388,0.39639 h -4.61702 -4.617 z"
           id="path4523-1-2"
           inkscape:connector-curvature="0" />
      </g>
    </g>
    <path
       style="fill:#ff0000;stroke:#ff0000;stroke-width:0.09282"
       d="m 170.25237,112.16967 v -5.00455 l -1.7123,-7.5e-4 c -0.96141,-2.7e-4 -1.87621,-0.045 -2.0861,-0.10208 -1.05506,-0.28667 -1.58105,-1.42715 -1.08727,-2.35743 0.26795,-0.5048 7.28771,-7.322947 7.72083,-7.499079 0.44232,-0.179872 0.83033,-0.179872 1.27266,0 0.43311,0.176132 7.45287,6.994279 7.72081,7.499079 0.49379,0.93028 -0.0322,2.07076 -1.08725,2.35743 -0.2099,0.057 -1.12471,0.10179 -2.08612,0.10208 l -1.71228,7.5e-4 v 5.00455 c -6.94298,0 0,0 -6.94298,0 z"
       id="path4606"
       inkscape:connector-curvature="0"
       sodipodi:nodetypes="ccccsccsscccc"
       inkscape:export-xdpi="37.384365"
       inkscape:export-ydpi="37.384365" />
    <path
       style="fill:#ff0000;stroke:#ff0000;stroke-width:0.09282"
       d="m 177.74196,150.50304 v 5.00455 l 1.7123,7.4e-4 c 0.96141,2.8e-4 1.87621,0.045 2.0861,0.10209 1.05506,0.28667 1.58105,1.42715 1.08727,2.35743 -0.26795,0.5048 -7.28771,7.32293 -7.72083,7.49906 -0.44232,0.17987 -0.83033,0.17987 -1.27266,0 -0.43311,-0.17613 -7.45287,-6.99426 -7.72081,-7.49906 -0.49379,-0.93028 0.0322,-2.07076 1.08725,-2.35743 0.2099,-0.057 1.12471,-0.10179 2.08612,-0.10208 l 1.71228,-7.4e-4 v -5.00455 c 6.94298,0 0,0 6.94298,0 z"
       id="path4606-7"
       inkscape:connector-curvature="0"
       sodipodi:nodetypes="ccccsccsscccc"
       inkscape:export-xdpi="37.384365"
       inkscape:export-ydpi="37.384365" />
    <path
       style="fill:#ff0000;stroke:#ff0000;stroke-width:0.09282"
       d="m 156.66823,135.66728 -7.4e-4,1.7123 c -2.8e-4,0.96141 -0.045,1.87621 -0.10209,2.0861 -0.28667,1.05506 -1.42715,1.58105 -2.35743,1.08727 -0.5048,-0.26795 -7.32293,-7.28771 -7.49906,-7.72083 -0.17988,-0.44232 -0.17988,-0.83033 0,-1.27266 0.17613,-0.43311 6.99426,-7.45287 7.49906,-7.72081 0.93028,-0.49379 2.07076,0.0322 2.35743,1.08725 0.057,0.2099 0.10179,1.12471 0.10208,2.08612 l 7.4e-4,1.71228 h 2.56253 v 6.94298 c -2.56252,0 -0.78194,0 -2.56252,0 z"
       id="path4606-8-8"
       inkscape:connector-curvature="0"
       sodipodi:nodetypes="cccsccssccccc"
       inkscape:export-xdpi="37.384365"
       inkscape:export-ydpi="37.384365" />
    <path
       style="fill:#ff0000;stroke:#ff0000;stroke-width:0.09282"
       d="m 190.87507,128.7243 7.4e-4,-1.7123 c 2.9e-4,-0.96141 0.045,-1.87621 0.10209,-2.0861 0.28667,-1.05506 1.42715,-1.58105 2.35743,-1.08727 0.5048,0.26795 7.32293,7.28771 7.49906,7.72083 0.17988,0.44232 0.17988,0.83033 0,1.27266 -0.17613,0.43311 -6.99426,7.45287 -7.49906,7.72081 -0.93028,0.49379 -2.07076,-0.0322 -2.35743,-1.08725 -0.057,-0.2099 -0.10179,-1.12471 -0.10208,-2.08612 l -7.4e-4,-1.71228 h -2.56253 v -6.94298 c 2.56252,0 0.78194,0 2.56252,0 z"
       id="path4606-8-8-8"
       inkscape:connector-curvature="0"
       sodipodi:nodetypes="cccsccssccccc"
       inkscape:export-xdpi="37.384365"
       inkscape:export-ydpi="37.384365" />
  </g>
</svg>
