<?xml version="1.0" standalone="no"?>
<!DOCTYPE svg PUBLIC "-//W3C//DTD SVG 20010904//EN"
 "http://www.w3.org/TR/2001/REC-SVG-20010904/DTD/svg10.dtd">
<svg version="1.0" xmlns="http://www.w3.org/2000/svg"
 width="318.000000pt" height="318.000000pt" viewBox="0 0 318.000000 318.000000"
 preserveAspectRatio="xMidYMid meet">
<metadata>
Created by potrace 1.11, written by Peter Selinger 2001-2013
</metadata>
<g transform="translate(0.000000,318.000000) scale(0.100000,-0.100000)"
fill="#000000" stroke="none">
<path d="M1037 3086 c-129 -48 -218 -221 -312 -601 -51 -208 -77 -362 -160
-942 -101 -710 -100 -724 15 -133 138 710 214 1018 314 1283 111 290 220 344
386 190 95 -87 218 -249 505 -663 104 -151 223 -316 242 -339 2 -3 16 7 31 22
25 26 26 29 12 51 -8 13 -69 105 -135 205 -66 99 -167 255 -225 348 -202 321
-342 489 -467 556 -63 34 -151 44 -206 23z"/>
<path d="M2121 1820 l-22 -31 51 -62 c103 -124 294 -329 369 -395 103 -93 172
-143 261 -190 73 -40 207 -89 216 -80 2 3 -15 11 -38 18 -191 57 -440 282
-722 654 -48 64 -89 116 -90 116 -1 0 -12 -14 -25 -30z"/>
<path d="M482 945 c0 -16 2 -22 5 -12 2 9 2 23 0 30 -3 6 -5 -1 -5 -18z"/>
<path d="M471 894 c0 -11 3 -14 6 -6 3 7 2 16 -1 19 -3 4 -6 -2 -5 -13z"/>
</g>
</svg>
